<svg width="58" height="42" viewBox="0 0 58 42" fill="none" xmlns="http://www.w3.org/2000/svg">
<path d="M0.000903216 21V33.6093C0.000903216 38.2433 3.71045 42 8.28639 42V21H8.2964C8.2964 18.7687 9.17084 16.6308 10.724 15.0562C12.2767 13.482 14.3804 12.5995 16.5719 12.5995C18.7633 12.5995 20.867 13.482 22.4198 15.0562C23.9729 16.6307 24.8473 18.7686 24.8473 21H29H33.1528C33.1528 18.7686 34.0271 16.6307 35.5802 15.0562C37.133 13.482 39.2368 12.5995 41.4281 12.5995C43.6196 12.5995 45.7234 13.4821 47.276 15.0562C48.8292 16.6308 49.7036 18.7687 49.7036 21H58C58 16.5449 56.2544 12.2721 53.1467 9.12156C50.039 5.9708 45.8237 4.20054 41.4281 4.20054C37.0326 4.20054 32.8173 5.97082 29.7096 9.1215C29.4645 9.36992 29.2279 9.62534 29 9.88727C28.7721 9.62534 28.5355 9.36992 28.2904 9.12149C25.1827 5.97082 20.9674 4.20054 16.5719 4.20054C13.5607 4.20054 10.6341 5.03131 8.09025 6.56753C7.26816 2.8101 3.95858 0 0.000903216 0V20.8245C0.000301362 20.883 0 20.9415 0 21H0.000903216Z" fill="#2857FD"/>
<path d="M24.8573 33.6093V21L29 21L33.1427 21V42C28.5668 42 24.8573 38.2433 24.8573 33.6093Z" fill="#2857FD"/>
<path d="M57.9994 29.4V21H49.714C49.714 25.634 53.4236 29.4 57.9994 29.4Z" fill="#2857FD"/>
<path d="M49.714 37.8046V33.6H53.8521C56.1426 33.6 57.9994 35.4827 57.9994 37.8023C57.9994 40.1193 56.1447 42 53.8568 42C51.5688 42 49.714 40.1216 49.714 37.8046Z" fill="#2857FD"/>
</svg>
