<svg width="457" height="449" viewBox="0 0 457 449" fill="none" xmlns="http://www.w3.org/2000/svg">
<path d="M127.468 15.4167H71.1262C67.2858 15.4134 63.5991 16.9251 60.8664 19.6235C59.5218 20.9512 58.4539 22.5325 57.7245 24.2757C56.9951 26.0189 56.6188 27.8895 56.6172 29.7792V155.221C56.6172 159.031 58.1454 162.682 60.8664 165.377C63.5991 168.075 67.2858 169.587 71.1262 169.583H141.975V29.6867C141.962 27.8045 141.577 25.9435 140.842 24.2106C140.107 22.4777 139.037 20.907 137.693 19.5888C134.964 16.9117 131.292 15.4135 127.468 15.4167Z" fill="#4285F4"/>
<path d="M134.724 151.584H77.1815C70.6564 151.584 63.8711 150.16 63.8711 143.703V33.2769H134.724V151.584Z" fill="#073042"/>
<path d="M111.995 95.8994C110.747 95.8994 109.721 94.8934 109.721 93.6524C109.721 92.4114 110.739 91.4073 111.995 91.4073C113.244 91.4073 114.267 92.4114 114.267 93.6524C114.267 94.8934 113.244 95.8994 111.993 95.8994H111.995ZM86.9027 95.8994C85.654 95.8994 84.6288 94.8934 84.6288 93.6524C84.6288 92.4114 85.6463 91.4073 86.9027 91.4073C88.1515 91.4073 89.1767 92.4114 89.1767 93.6524C89.1767 94.8934 88.1592 95.8994 86.9027 95.8994ZM112.807 82.3905L117.345 74.6282C117.406 74.5218 117.446 74.4043 117.462 74.2824C117.478 74.1605 117.47 74.0367 117.437 73.9181C117.405 73.7995 117.35 73.6884 117.274 73.5914C117.199 73.4943 117.105 73.4131 116.998 73.3525C116.78 73.2294 116.523 73.1966 116.282 73.2611C116.04 73.3256 115.834 73.4823 115.707 73.6975L111.115 81.56C107.444 79.9175 103.465 79.0765 99.4442 79.0933C95.2354 79.0933 91.2907 79.9759 87.7757 81.56L83.1835 73.6975C83.0563 73.4823 82.8498 73.3256 82.6084 73.2611C82.3669 73.1966 82.1098 73.2294 81.8923 73.3525C81.7854 73.4131 81.6915 73.4943 81.6161 73.5914C81.5407 73.6884 81.4853 73.7995 81.453 73.9181C81.4208 74.0367 81.4124 74.1605 81.4282 74.2824C81.4441 74.4043 81.4839 74.5218 81.5454 74.6282L86.0837 82.3905C82.1794 84.4776 78.8614 87.5112 76.4338 91.2135C74.0063 94.9157 72.5469 99.1681 72.1895 103.581H126.699C126.343 99.1676 124.885 94.9145 122.457 91.212C120.029 87.5095 116.71 84.4762 112.805 82.3905H112.807Z" fill="#3DDC84"/>
<path fill-rule="evenodd" clip-rule="evenodd" d="M108.507 24.7129H91.2148V23.7475H108.505V24.7129H108.507Z" fill="#073042"/>
<path d="M295.326 52.125H253.526C250.64 52.125 248.301 54.4643 248.301 57.35V99.15C248.301 102.036 250.64 104.375 253.526 104.375H295.326C298.211 104.375 300.551 102.036 300.551 99.15V57.35C300.551 54.4643 298.211 52.125 295.326 52.125Z" fill="white"/>
<path d="M393.295 156.625H351.495C348.609 156.625 346.27 158.964 346.27 161.85V203.65C346.27 206.536 348.609 208.875 351.495 208.875H393.295C396.18 208.875 398.52 206.536 398.52 203.65V161.85C398.52 158.964 396.18 156.625 393.295 156.625Z" fill="white"/>
<path fill-rule="evenodd" clip-rule="evenodd" d="M308.172 78.25C308.172 75.8465 310.119 73.8976 312.525 73.8976H373.482V134.855H278.782V178.398H332.121C332.702 178.383 333.279 178.485 333.82 178.698C334.361 178.91 334.854 179.229 335.269 179.634C335.685 180.04 336.015 180.525 336.241 181.06C336.467 181.595 336.583 182.17 336.583 182.751C336.583 183.332 336.467 183.907 336.241 184.443C336.015 184.978 335.685 185.463 335.269 185.868C334.854 186.274 334.361 186.592 333.82 186.805C333.279 187.017 332.702 187.119 332.121 187.105H270.074V126.148H364.777V82.605H312.527C310.124 82.605 308.172 80.6561 308.172 78.2526V78.25Z" fill="#3DDC84"/>
<path fill-rule="evenodd" clip-rule="evenodd" d="M105.5 258.562H174.207V267.354H105.5V258.562ZM105.5 276.146H193.417V284.937H105.5V276.146ZM105.5 293.729H193.417V302.521H105.5V293.729Z" fill="#3DDC84"/>
<path d="M77.6574 315.708H27.7384C22.1337 315.708 17.584 311.273 17.584 305.809V255.274C17.584 249.81 22.1337 245.375 27.7384 245.375H77.7629C83.3676 245.375 87.9173 249.81 87.9173 255.274V305.809C87.9173 311.273 83.3676 315.708 77.6574 315.708Z" fill="#3DDC84"/>
<path fill-rule="evenodd" clip-rule="evenodd" d="M79.2999 259.31C81.2781 261.288 81.2781 264.497 79.2999 266.475L43.0343 302.741L26.2774 286.087C25.8056 285.618 25.4309 285.061 25.1745 284.447C24.9181 283.833 24.7852 283.175 24.7832 282.509C24.7793 281.166 25.3093 279.876 26.2565 278.923C27.2038 277.97 28.4907 277.433 29.8343 277.429C31.1778 277.425 32.4678 277.955 33.4206 278.902L43.0101 288.437L72.1369 259.31C74.1151 257.332 77.324 257.332 79.2999 259.31Z" fill="white"/>
<path fill-rule="evenodd" clip-rule="evenodd" d="M105.5 346.479H174.207V355.271H105.5V346.479ZM105.5 364.062H193.417V372.854H105.5V364.062ZM105.5 381.646H193.417V390.437H105.5V381.646Z" fill="#3DDC84"/>
<path d="M77.6574 403.625H27.7384C22.1337 403.625 17.584 399.19 17.584 393.726V343.191C17.584 337.727 22.1337 333.292 27.7384 333.292H77.7629C83.3676 333.292 87.9173 337.727 87.9173 343.191V393.726C87.9173 399.19 83.3676 403.625 77.6574 403.625Z" fill="#3DDC84"/>
<path fill-rule="evenodd" clip-rule="evenodd" d="M79.2999 347.226C81.2781 349.205 81.2781 352.414 79.2999 354.392L43.0343 390.657L26.2774 374.004C25.8056 373.535 25.4309 372.977 25.1745 372.363C24.9181 371.75 24.7852 371.091 24.7832 370.426C24.7813 369.761 24.9104 369.102 25.1632 368.486C25.416 367.871 25.7875 367.311 26.2565 366.84C26.7256 366.368 27.2829 365.993 27.8968 365.737C28.5106 365.48 29.169 365.347 29.8343 365.345C30.4995 365.343 31.1586 365.473 31.774 365.725C32.3893 365.978 32.9489 366.35 33.4206 366.819L43.0101 376.353L72.1369 347.226C74.1151 345.248 77.324 345.248 79.2999 347.226Z" fill="white"/>
<path d="M437.933 297.333H268.066C262.322 297.333 257.666 301.989 257.666 307.733V384.433C257.666 390.177 262.322 394.833 268.066 394.833H437.933C443.676 394.833 448.333 390.177 448.333 384.433V307.733C448.333 301.989 443.676 297.333 437.933 297.333Z" fill="#073042"/>
<path d="M277.717 323.832C277.08 324.47 276.807 325.289 276.807 326.382V365.903C276.807 366.996 277.08 367.816 277.717 368.362V368.544L300.301 346.416V345.869L277.717 323.832L277.535 324.014L277.717 323.832Z" fill="url(#paint0_linear_329_2161)"/>
<path d="M307.768 353.792L300.301 346.416V345.869L307.768 338.585H307.95L316.783 343.593C319.333 344.959 319.333 347.235 316.783 348.693L307.95 353.701H307.768V353.792Z" fill="url(#paint1_linear_329_2161)"/>
<path d="M307.949 353.701L300.3 346.143L277.625 368.362C278.536 369.273 279.902 369.364 281.45 368.544L307.858 353.701" fill="url(#paint2_linear_329_2161)"/>
<path d="M307.949 338.585L281.359 323.832C279.902 322.922 278.445 323.013 277.625 323.923L300.3 346.143L307.949 338.585Z" fill="url(#paint3_linear_329_2161)"/>
<path opacity="0.2" d="M307.767 353.519L281.359 368.271C279.902 369.091 278.627 369 277.717 368.271V368.453C278.627 369.182 279.902 369.273 281.359 368.453L307.95 353.61L307.767 353.428V353.519Z" fill="white"/>
<path opacity="0.1" d="M277.718 368.089C276.989 367.543 276.807 366.723 276.807 365.721V365.995C276.807 367.087 277.08 367.907 277.718 368.453V368.089Z" fill="white"/>
<path opacity="0.1" d="M316.874 348.419L307.768 353.519L307.95 353.701L316.783 348.692C318.058 348.055 318.695 347.053 318.695 346.143C318.604 347.053 317.967 347.782 316.874 348.419Z" fill="white"/>
<path opacity="0.3" d="M281.36 324.014L316.874 343.866C317.967 344.503 318.604 345.323 318.695 346.143C318.695 345.232 318.058 344.321 316.874 343.593L281.36 323.741C278.901 322.375 276.807 323.559 276.807 326.473V326.564C276.807 323.832 278.901 322.648 281.36 324.014Z" fill="white"/>
<path d="M404.999 329.833H335.666V338.5H404.999V329.833Z" fill="#F5F5F7"/>
<path d="M422.333 349.333H335.666V362.333H422.333V349.333Z" fill="#F5F5F7"/>
<defs>
<linearGradient id="paint0_linear_329_2161" x1="298.304" y1="326.068" x2="262.345" y2="335.806" gradientUnits="userSpaceOnUse">
<stop stop-color="#00A0FF"/>
<stop offset="0.007" stop-color="#00A1FF"/>
<stop offset="0.26" stop-color="#00BEFF"/>
<stop offset="0.512" stop-color="#00D2FF"/>
<stop offset="0.76" stop-color="#00DFFF"/>
<stop offset="1" stop-color="#00E3FF"/>
</linearGradient>
<linearGradient id="paint1_linear_329_2161" x1="320.094" y1="346.188" x2="276.296" y2="346.188" gradientUnits="userSpaceOnUse">
<stop stop-color="#FFE000"/>
<stop offset="0.409" stop-color="#FFBD00"/>
<stop offset="0.775" stop-color="#FFA500"/>
<stop offset="1" stop-color="#FF9C00"/>
</linearGradient>
<linearGradient id="paint2_linear_329_2161" x1="303.764" y1="350.23" x2="275.589" y2="398.547" gradientUnits="userSpaceOnUse">
<stop stop-color="#FF3A44"/>
<stop offset="1" stop-color="#C31162"/>
</linearGradient>
<linearGradient id="paint3_linear_329_2161" x1="271.924" y1="310.755" x2="284.501" y2="332.34" gradientUnits="userSpaceOnUse">
<stop stop-color="#32A071"/>
<stop offset="0.068" stop-color="#2DA771"/>
<stop offset="0.476" stop-color="#15CF74"/>
<stop offset="0.801" stop-color="#06E775"/>
<stop offset="1" stop-color="#00F076"/>
</linearGradient>
</defs>
</svg>
