<svg width="1024" height="1024" viewBox="0 0 1024 1024" fill="none" xmlns="http://www.w3.org/2000/svg">
<path fill-rule="evenodd" clip-rule="evenodd" d="M1024 0H0V1024H1024V0ZM256 318C290.939 318 320.156 343.961 327.412 378.674C349.87 364.48 375.708 356.803 402.293 356.803C441.098 356.803 478.308 373.157 505.744 402.263C507.907 404.557 509.996 406.917 512.006 409.339C514.017 406.917 516.106 404.557 518.272 402.263C545.704 373.157 582.915 356.803 621.718 356.803C660.525 356.803 697.736 373.157 725.168 402.263C752.604 431.366 768 470.839 768 511.994V589.59C727.606 589.59 694.86 554.8 694.859 511.994H694.773C694.773 491.384 687.054 471.634 673.344 457.089C659.639 442.547 641.066 434.392 621.718 434.392C602.374 434.392 583.802 442.543 570.096 457.089C556.386 471.63 548.667 491.379 548.667 511.994H548.577V705.987C508.182 705.987 475.436 671.283 475.436 628.476V511.994H475.346C475.346 491.379 467.627 471.63 453.917 457.089C440.211 442.543 421.639 434.392 402.293 434.392C382.947 434.392 364.376 442.543 350.669 457.089C336.958 471.634 329.239 491.384 329.239 511.994H329.142V705.99C288.747 705.99 256 671.286 256 628.479V318ZM731.388 628.402H694.859V667.245C694.859 688.646 711.232 706 731.429 706C751.627 706 768 688.624 768 667.223C768 645.795 751.611 628.402 731.388 628.402Z" fill="#030303"/>
</svg>
