<svg width="167" height="42" viewBox="0 0 167 42" fill="none" xmlns="http://www.w3.org/2000/svg">
<path d="M0.000903216 21V33.6093C0.000903216 38.2433 3.71045 42 8.28639 42V21H8.2964C8.2964 18.7687 9.17084 16.6308 10.724 15.0562C12.2767 13.482 14.3804 12.5995 16.5719 12.5995C18.7633 12.5995 20.867 13.482 22.4198 15.0562C23.9729 16.6307 24.8473 18.7686 24.8473 21H29H33.1528C33.1528 18.7686 34.0271 16.6307 35.5802 15.0562C37.133 13.482 39.2368 12.5995 41.4281 12.5995C43.6196 12.5995 45.7234 13.4821 47.276 15.0562C48.8292 16.6308 49.7036 18.7687 49.7036 21H58C58 16.5449 56.2544 12.2721 53.1467 9.12156C50.039 5.9708 45.8237 4.20054 41.4281 4.20054C37.0326 4.20054 32.8173 5.97082 29.7096 9.1215C29.4645 9.36992 29.2279 9.62534 29 9.88727C28.7721 9.62534 28.5355 9.36992 28.2904 9.12149C25.1827 5.97082 20.9674 4.20054 16.5719 4.20054C13.5607 4.20054 10.6341 5.03131 8.09025 6.56753C7.26816 2.8101 3.95858 0 0.000903216 0V20.8245C0.000301362 20.8829 0 20.9415 0 21H0.000903216Z" fill="white"/>
<path d="M24.8573 33.6093V21L29 21L33.1427 21V42C28.5668 42 24.8573 38.2433 24.8573 33.6093Z" fill="white"/>
<path d="M57.9994 29.4V21H49.714C49.714 25.634 53.4236 29.4 57.9994 29.4Z" fill="white"/>
<path d="M49.714 37.8046V33.6H53.8521C56.1426 33.6 57.9994 35.4827 57.9994 37.8023C57.9994 40.1193 56.1447 42 53.8568 42C51.5688 42 49.714 40.1216 49.714 37.8046Z" fill="white"/>
<path d="M68.86 17.92H71.66V8.84L75.42 17.92H77.54L81.28 8.84V17.92H84.08V3.96H80.92L76.48 14.34L72.04 3.96H68.86V17.92Z" fill="white"/>
<path d="M86.8483 17.92H89.6483V3.96H86.8483V17.92Z" fill="white"/>
<path d="M92.4147 17.92H95.2147V8.84L98.9747 17.92H101.095L104.835 8.84V17.92H107.635V3.96H104.475L100.035 14.34L95.5947 3.96H92.4147V17.92Z" fill="white"/>
<path d="M78.34 37.92H81.3L76.28 23.94H73.02L68 37.92H70.94L71.86 35.26H77.42L78.34 37.92ZM76.66 33.02H72.62L74.64 27.18L76.66 33.02Z" fill="white"/>
<path d="M82.4964 30.92C82.4964 35.1 85.5564 38.04 89.5764 38.04C92.6764 38.04 95.1964 36.4 96.1364 33.52H92.9164C92.2564 34.88 91.0564 35.54 89.5564 35.54C87.1164 35.54 85.3764 33.74 85.3764 30.92C85.3764 28.08 87.1164 26.3 89.5564 26.3C91.0564 26.3 92.2564 26.96 92.9164 28.3H96.1364C95.1964 25.44 92.6764 23.78 89.5764 23.78C85.5564 23.78 82.4964 26.74 82.4964 30.92Z" fill="white"/>
<path d="M108.008 37.92H110.968L105.948 23.94H102.688L97.668 37.92H100.608L101.528 35.26H107.088L108.008 37.92ZM106.328 33.02H102.288L104.308 27.18L106.328 33.02Z" fill="white"/>
<path d="M117.724 23.96H112.844V37.92H117.724C122.184 37.92 125.084 35.18 125.084 30.96C125.084 26.72 122.184 23.96 117.724 23.96ZM115.644 35.54V26.32H117.624C120.564 26.32 122.224 28.06 122.224 30.96C122.224 33.86 120.564 35.54 117.624 35.54H115.644Z" fill="white"/>
<path d="M135.28 23.94H127.18V37.92H135.28V35.64H129.98V31.94H134.68V29.72H129.98V26.22H135.28V23.94Z" fill="white"/>
<path d="M137.825 37.92H140.625V28.84L144.385 37.92H146.505L150.245 28.84V37.92H153.045V23.96H149.885L145.445 34.34L141.005 23.96H137.825V37.92Z" fill="white"/>
<path d="M159.393 33.06V37.92H162.193V33.06L166.913 23.96H163.793L160.813 30.34L157.813 23.96H154.653L159.393 33.06Z" fill="white"/>
</svg>
