<svg width="780" height="468" viewBox="0 0 780 468" fill="none" xmlns="http://www.w3.org/2000/svg">
<path d="M310.257 4.46554C320.618 -1.48851 333.382 -1.48851 343.743 4.46554L455.257 68.5499C465.618 74.504 472 85.5075 472 97.4156V225.584C472 237.492 465.618 248.496 455.257 254.45L343.743 318.534C333.382 324.489 320.618 324.489 310.257 318.534L198.743 254.45C188.382 248.496 182 237.492 182 225.584V97.4156C182 85.5075 188.382 74.504 198.743 68.5499L310.257 4.46554Z" fill="#FF8E01"/>
<path d="M245 100C257.86 100 268.286 110.434 268.286 123.305V223C255.425 223 245 212.566 245 199.695V100Z" fill="white"/>
<path d="M314.858 151.789H338.144V223C325.284 223 314.858 212.566 314.858 199.695V151.789Z" fill="white"/>
<path d="M384.714 151.789H408V186.747C395.14 186.747 384.714 176.313 384.714 163.442V151.789Z" fill="white"/>
<path d="M384.714 199.695H396.357C402.787 199.695 408 204.912 408 211.347C408 217.783 402.787 223 396.357 223C389.927 223 384.714 217.783 384.714 211.347V199.695Z" fill="white"/>
<path d="M384.714 151.789C384.714 138.918 374.288 128.484 361.427 128.484C348.567 128.484 338.142 138.918 338.142 151.789H314.856C314.856 126.047 335.707 105.179 361.427 105.179C387.148 105.179 408 126.047 408 151.789H384.714Z" fill="white"/>
<path d="M314.858 151.789C314.858 138.918 304.432 128.484 291.572 128.484C278.711 128.484 268.286 138.918 268.286 151.789H245C245 126.047 265.851 105.179 291.572 105.179C317.292 105.179 338.144 126.047 338.144 151.789H314.858Z" fill="white"/>
<path d="M93.1542 391.512C97.8166 391.512 102.013 392.334 105.743 393.979C109.566 395.624 112.783 398 115.394 401.107C118.098 404.123 120.149 407.778 121.548 412.073C123.04 416.368 123.786 421.166 123.786 426.466V458.405C123.786 460.05 122.994 460.872 121.408 460.872C120.662 460.872 120.056 460.644 119.59 460.187C119.123 459.73 118.89 459.136 118.89 458.405V426.466C118.89 417.054 116.606 409.697 112.037 404.397C107.468 399.005 101.174 396.309 93.1542 396.309C89.6108 396.309 86.2539 397.086 83.0835 398.64C79.9131 400.193 77.1157 402.341 74.6912 405.082C72.3601 407.824 70.4951 411.022 69.0964 414.678C67.7909 418.333 67.1382 422.262 67.1382 426.466V458.405C67.1382 460.05 66.3456 460.872 64.7604 460.872C64.1077 460.872 63.5015 460.644 62.942 460.187C62.4757 459.73 62.2427 459.136 62.2427 458.405V426.466C62.2427 417.054 59.9581 409.697 55.389 404.397C50.8199 399.005 44.5257 396.309 36.5064 396.309C32.9629 396.309 29.606 397.086 26.4356 398.64C23.2653 400.193 20.4679 402.341 18.0434 405.082C15.7122 407.824 13.8472 411.022 12.4485 414.678C11.1431 418.333 10.4903 422.262 10.4903 426.466V458.405C10.4903 460.05 9.69774 460.872 8.11253 460.872C7.4598 460.872 6.85369 460.644 6.2942 460.187C5.82797 459.73 5.59485 459.136 5.59485 458.405V394.664C5.59485 394.025 5.82797 393.477 6.2942 393.02C6.85369 392.563 7.4598 392.334 8.11253 392.334C8.85851 392.334 9.418 392.563 9.79098 393.02C10.2572 393.477 10.4903 394.07 10.4903 394.802V410.839C11.6093 407.915 13.0546 405.311 14.8263 403.026C16.598 400.65 18.6495 398.594 20.9807 396.858C23.3118 395.121 25.783 393.796 28.3938 392.883C31.0981 391.969 33.8955 391.512 36.7861 391.512C44.0594 391.512 50.1205 393.477 54.9694 397.406C59.9115 401.335 63.315 406.773 65.18 413.718C66.2057 410.428 67.651 407.458 69.516 404.808C71.381 402.067 73.5256 399.736 75.95 397.817C78.3745 395.807 81.0321 394.253 83.9227 393.157C86.9067 392.06 89.9838 391.512 93.1542 391.512ZM155.778 373.144C155.778 374.423 155.312 375.52 154.38 376.433C153.447 377.347 152.328 377.804 151.023 377.804C149.717 377.804 148.598 377.347 147.666 376.433C146.733 375.52 146.267 374.423 146.267 373.144C146.267 371.864 146.733 370.768 147.666 369.854C148.598 368.94 149.717 368.483 151.023 368.483C152.328 368.483 153.447 368.94 154.38 369.854C155.312 370.768 155.778 371.864 155.778 373.144ZM151.023 392.334C151.675 392.334 152.235 392.563 152.701 393.02C153.261 393.477 153.54 394.025 153.54 394.664V458.405C153.54 459.136 153.261 459.73 152.701 460.187C152.235 460.644 151.675 460.872 151.023 460.872C149.437 460.872 148.645 460.05 148.645 458.405V394.664C148.645 394.025 148.831 393.477 149.204 393.02C149.67 392.563 150.276 392.334 151.023 392.334ZM267.026 391.512C271.688 391.512 275.884 392.334 279.615 393.979C283.437 395.624 286.654 398 289.266 401.107C291.969 404.123 294.021 407.778 295.42 412.073C296.912 416.368 297.658 421.166 297.658 426.466V458.405C297.658 460.05 296.865 460.872 295.28 460.872C294.534 460.872 293.927 460.644 293.462 460.187C292.995 459.73 292.763 459.136 292.763 458.405V426.466C292.763 417.054 290.478 409.697 285.909 404.397C281.339 399.005 275.045 396.309 267.026 396.309C263.483 396.309 260.126 397.086 256.956 398.64C253.785 400.193 250.987 402.341 248.563 405.082C246.231 407.824 244.367 411.022 242.969 414.678C241.663 418.333 241.01 422.262 241.01 426.466V458.405C241.01 460.05 240.217 460.872 238.633 460.872C237.979 460.872 237.374 460.644 236.814 460.187C236.348 459.73 236.115 459.136 236.115 458.405V426.466C236.115 417.054 233.83 409.697 229.261 404.397C224.691 399.005 218.397 396.309 210.379 396.309C206.835 396.309 203.478 397.086 200.308 398.64C197.137 400.193 194.339 402.341 191.916 405.082C189.584 407.824 187.719 411.022 186.321 414.678C185.015 418.333 184.363 422.262 184.363 426.466V458.405C184.363 460.05 183.569 460.872 181.985 460.872C181.331 460.872 180.726 460.644 180.166 460.187C179.7 459.73 179.467 459.136 179.467 458.405V394.664C179.467 394.025 179.7 393.477 180.166 393.02C180.726 392.563 181.331 392.334 181.985 392.334C182.73 392.334 183.289 392.563 183.663 393.02C184.129 393.477 184.363 394.07 184.363 394.802V410.839C185.481 407.915 186.926 405.311 188.699 403.026C190.47 400.65 192.521 398.594 194.853 396.858C197.184 395.121 199.654 393.796 202.266 392.883C204.969 391.969 207.767 391.512 210.658 391.512C217.932 391.512 223.992 393.477 228.842 397.406C233.783 401.335 237.187 406.773 239.052 413.718C240.077 410.428 241.523 407.458 243.388 404.808C245.252 402.067 247.397 399.736 249.822 397.817C252.246 395.807 254.903 394.253 257.795 393.157C260.778 392.06 263.855 391.512 267.026 391.512ZM327.553 451.003C329.137 451.003 330.49 451.551 331.609 452.648C332.821 453.744 333.427 455.115 333.427 456.76C333.427 458.313 332.821 459.684 331.609 460.872C330.49 461.969 329.137 462.517 327.553 462.517C325.967 462.517 324.568 461.969 323.356 460.872C322.237 459.684 321.678 458.313 321.678 456.76C321.678 455.115 322.237 453.744 323.356 452.648C324.568 451.551 325.967 451.003 327.553 451.003ZM358.256 409.743C358.256 412.484 358.955 414.723 360.354 416.46C361.753 418.196 363.524 419.567 365.669 420.572C367.907 421.577 370.285 422.354 372.803 422.902C375.413 423.359 377.838 423.725 380.076 423.999C382.966 424.273 385.95 424.775 389.028 425.507C392.198 426.238 395.042 427.334 397.56 428.796C400.17 430.167 402.315 431.995 403.994 434.279C405.672 436.564 406.511 439.488 406.511 443.052C406.419 446.251 405.44 449.038 403.574 451.414C401.803 453.698 399.565 455.617 396.86 457.171C394.25 458.725 391.358 459.913 388.188 460.735C385.018 461.466 381.987 461.832 379.097 461.832C374.528 461.832 370.145 461.146 365.949 459.775C361.753 458.313 358.256 456.394 355.459 454.018C354.806 453.561 354.34 453.013 354.06 452.373C353.873 451.642 354.107 450.957 354.759 450.317C355.785 449.129 356.95 449.038 358.256 450.043C360.96 452.419 364.41 454.247 368.606 455.526C372.895 456.806 377.325 457.262 381.894 456.897C383.852 456.714 385.95 456.303 388.188 455.663C390.519 454.932 392.664 453.973 394.622 452.785C396.581 451.597 398.212 450.226 399.518 448.672C400.824 447.027 401.523 445.154 401.616 443.052C401.616 440.311 400.917 438.072 399.518 436.336C398.119 434.599 396.301 433.228 394.063 432.223C391.918 431.218 389.54 430.487 386.93 430.03C384.412 429.482 382.034 429.07 379.796 428.796C376.812 428.431 373.735 427.928 370.565 427.289C367.487 426.557 364.643 425.507 362.032 424.136C359.515 422.674 357.417 420.8 355.738 418.516C354.153 416.14 353.36 413.124 353.36 409.469C353.547 406.91 354.293 404.58 355.598 402.478C356.904 400.376 358.583 398.594 360.634 397.132C362.685 395.578 364.923 394.345 367.348 393.431C369.865 392.517 372.383 391.923 374.901 391.649C379.469 391.101 383.992 391.42 388.468 392.608C393.037 393.705 396.86 395.441 399.938 397.817C400.497 398.274 400.87 398.868 401.056 399.599C401.243 400.239 401.01 400.924 400.357 401.655C399.891 402.112 399.331 402.341 398.679 402.341C398.119 402.341 397.56 402.158 397 401.792C394.296 399.691 390.986 398.183 387.069 397.269C383.246 396.264 379.376 396.035 375.46 396.584C373.689 396.766 371.776 397.223 369.725 397.954C367.767 398.594 365.949 399.508 364.27 400.696C362.592 401.792 361.146 403.117 359.934 404.671C358.815 406.133 358.256 407.824 358.256 409.743ZM485.134 405.219C484.2 406.133 483.081 406.133 481.777 405.219C478.7 402.295 475.249 400.056 471.426 398.503C467.696 396.949 463.733 396.218 459.537 396.309C455.341 396.309 451.378 397.132 447.648 398.777C443.917 400.33 440.655 402.478 437.857 405.219C435.06 407.961 432.822 411.159 431.143 414.815C429.558 418.47 428.766 422.354 428.766 426.466C428.766 430.67 429.558 434.645 431.143 438.392C432.822 442.047 435.06 445.245 437.857 447.987C440.655 450.728 443.917 452.922 447.648 454.567C451.378 456.12 455.341 456.943 459.537 457.034C463.733 457.125 467.696 456.394 471.426 454.841C475.249 453.287 478.7 451.003 481.777 447.987C483.081 447.073 484.2 447.119 485.134 448.124C485.786 448.672 486.019 449.312 485.833 450.043C485.739 450.683 485.413 451.231 484.854 451.688C481.403 454.978 477.487 457.491 473.105 459.227C468.815 460.963 464.386 461.832 459.817 461.832C454.874 461.832 450.212 460.918 445.83 459.09C441.54 457.262 437.763 454.749 434.5 451.551C431.236 448.352 428.672 444.651 426.807 440.448C424.942 436.153 424.01 431.584 424.01 426.74C424.01 421.897 424.895 417.373 426.667 413.17C428.532 408.875 431.049 405.128 434.221 401.93C437.483 398.731 441.26 396.218 445.55 394.39C449.932 392.471 454.642 391.512 459.677 391.512C464.153 391.42 468.582 392.243 472.965 393.979C477.347 395.624 481.31 398.091 484.854 401.381C485.413 401.838 485.739 402.432 485.833 403.163C486.019 403.894 485.786 404.58 485.134 405.219ZM537.366 391.512C541.936 391.512 546.085 392.334 549.815 393.979C553.545 395.624 556.715 398 559.326 401.107C562.03 404.123 564.128 407.778 565.62 412.073C567.113 416.368 567.858 421.166 567.858 426.466V458.405C567.858 459.136 567.578 459.73 567.019 460.187C566.553 460.644 565.994 460.872 565.34 460.872C564.595 460.872 563.989 460.644 563.522 460.187C563.149 459.73 562.962 459.136 562.962 458.405V426.466C562.962 417.145 560.632 409.789 555.969 404.397C551.4 399.005 545.153 396.309 537.226 396.309C533.683 396.309 530.327 397.086 527.155 398.64C523.985 400.193 521.235 402.341 518.903 405.082C516.572 407.732 514.707 410.885 513.308 414.54C511.909 418.196 511.21 422.08 511.21 426.192V458.405C511.21 459.136 510.977 459.73 510.511 460.187C510.045 460.644 509.439 460.872 508.692 460.872C507.108 460.872 506.315 460.05 506.315 458.405V371.499C506.315 370.859 506.501 370.311 506.874 369.854C507.341 369.397 507.947 369.168 508.692 369.168C509.439 369.168 510.045 369.397 510.511 369.854C510.977 370.311 511.21 370.859 511.21 371.499V410.839C512.236 407.915 513.635 405.265 515.406 402.889C517.272 400.513 519.323 398.503 521.561 396.858C523.893 395.121 526.41 393.796 529.114 392.883C531.818 391.969 534.569 391.512 537.366 391.512ZM623.447 391.375C628.39 391.375 633.005 392.334 637.294 394.253C641.677 396.081 645.5 398.594 648.764 401.792C652.028 404.991 654.591 408.738 656.457 413.033C658.415 417.236 659.394 421.76 659.394 426.603C659.394 431.447 658.415 436.016 656.457 440.311C654.591 444.514 652.028 448.215 648.764 451.414C645.5 454.612 641.677 457.171 637.294 459.09C633.005 460.918 628.39 461.832 623.447 461.832C618.505 461.832 613.843 460.918 609.46 459.09C605.171 457.171 601.395 454.612 598.13 451.414C594.866 448.215 592.256 444.514 590.298 440.311C588.432 436.016 587.5 431.447 587.5 426.603C587.5 421.76 588.432 417.236 590.298 413.033C592.256 408.738 594.866 404.991 598.13 401.792C601.395 398.594 605.171 396.081 609.46 394.253C613.843 392.334 618.505 391.375 623.447 391.375ZM623.447 457.034C627.736 457.034 631.747 456.257 635.476 454.704C639.3 453.059 642.61 450.866 645.407 448.124C648.204 445.383 650.395 442.184 651.981 438.529C653.659 434.782 654.499 430.807 654.499 426.603C654.499 422.4 653.659 418.47 651.981 414.815C650.395 411.159 648.204 407.961 645.407 405.219C642.61 402.478 639.3 400.33 635.476 398.777C631.747 397.132 627.736 396.309 623.447 396.309C619.158 396.309 615.148 397.132 611.418 398.777C607.689 400.33 604.425 402.478 601.627 405.219C598.83 407.961 596.592 411.159 594.913 414.815C593.328 418.47 592.536 422.4 592.536 426.603C592.536 430.807 593.328 434.782 594.913 438.529C596.592 442.184 598.83 445.383 601.627 448.124C604.425 450.866 607.689 453.059 611.418 454.704C615.148 456.257 619.158 457.034 623.447 457.034ZM712.773 391.375C717.716 391.375 722.332 392.334 726.621 394.253C731.004 396.081 734.827 398.594 738.09 401.792C741.354 404.991 743.919 408.738 745.783 413.033C747.741 417.236 748.72 421.76 748.72 426.603C748.72 431.447 747.741 436.016 745.783 440.311C743.919 444.514 741.354 448.215 738.09 451.414C734.827 454.612 731.004 457.171 726.621 459.09C722.332 460.918 717.716 461.832 712.773 461.832C707.832 461.832 703.169 460.918 698.786 459.09C694.497 457.171 690.721 454.612 687.457 451.414C684.194 448.215 681.582 444.514 679.624 440.311C677.76 436.016 676.827 431.447 676.827 426.603C676.827 421.76 677.76 417.236 679.624 413.033C681.582 408.738 684.194 404.991 687.457 401.792C690.721 398.594 694.497 396.081 698.786 394.253C703.169 392.334 707.832 391.375 712.773 391.375ZM712.773 457.034C717.064 457.034 721.073 456.257 724.802 454.704C728.626 453.059 731.936 450.866 734.733 448.124C737.531 445.383 739.723 442.184 741.307 438.529C742.986 434.782 743.825 430.807 743.825 426.603C743.825 422.4 742.986 418.47 741.307 414.815C739.723 411.159 737.531 407.961 734.733 405.219C731.936 402.478 728.626 400.33 724.802 398.777C721.073 397.132 717.064 396.309 712.773 396.309C708.484 396.309 704.475 397.132 700.745 398.777C697.015 400.33 693.751 402.478 690.954 405.219C688.156 407.961 685.918 411.159 684.24 414.815C682.655 418.47 681.862 422.4 681.862 426.603C681.862 430.807 682.655 434.782 684.24 438.529C685.918 442.184 688.156 445.383 690.954 448.124C693.751 450.866 697.015 453.059 700.745 454.704C704.475 456.257 708.484 457.034 712.773 457.034ZM772.027 369.168C772.774 369.168 773.333 369.397 773.706 369.854C774.172 370.311 774.405 370.859 774.405 371.499V458.542C774.405 460.095 773.613 460.872 772.027 460.872C771.375 460.872 770.768 460.689 770.209 460.324C769.743 459.867 769.51 459.273 769.51 458.542V371.499C769.51 370.859 769.743 370.311 770.209 369.854C770.768 369.397 771.375 369.168 772.027 369.168Z" fill="white"/>
<path d="M105.743 393.979L103.447 398.979L103.47 398.99L103.494 399L105.743 393.979ZM115.394 401.107L111.075 404.593L111.132 404.66L111.191 404.727L115.394 401.107ZM121.548 412.073L116.218 413.74L116.234 413.79L116.252 413.84L121.548 412.073ZM112.037 404.397L107.733 407.9L107.748 407.918L107.763 407.935L112.037 404.397ZM74.6912 405.082L70.4633 401.491L70.4278 401.531L70.3931 401.572L74.6912 405.082ZM69.0964 414.678L63.8578 412.752L63.8361 412.809L63.8156 412.866L69.0964 414.678ZM62.942 460.187L58.9859 464.064L59.1653 464.24L59.3603 464.399L62.942 460.187ZM55.389 404.397L51.085 407.9L51.1 407.918L51.1152 407.935L55.389 404.397ZM18.0434 405.082L13.8154 401.491L13.78 401.531L13.7453 401.572L18.0434 405.082ZM12.4485 414.678L7.20992 412.752L7.18821 412.809L7.16779 412.866L12.4485 414.678ZM6.2942 460.187L2.33805 464.064L2.5175 464.24L2.71247 464.399L6.2942 460.187ZM6.2942 393.02L2.71248 388.807L2.5175 388.967L2.33804 389.143L6.2942 393.02ZM9.79098 393.02L5.42215 396.445L5.61572 396.682L5.83482 396.897L9.79098 393.02ZM10.4903 410.839H4.89549L15.729 412.765L10.4903 410.839ZM14.8263 403.026L19.2807 406.344L19.3125 406.303L19.3436 406.261L14.8263 403.026ZM28.3938 392.883L26.5699 387.699L26.5409 387.709L26.5121 387.719L28.3938 392.883ZM54.9694 397.406L51.404 401.631L51.4241 401.648L51.4444 401.664L54.9694 397.406ZM65.18 413.718L59.7693 415.113L64.7787 433.769L70.5306 415.32L65.18 413.718ZM69.516 404.808L74.1218 407.921L74.1467 407.885L74.1712 407.85L69.516 404.808ZM75.95 397.817L79.4655 402.083L79.5152 402.043L79.564 402.003L75.95 397.817ZM83.9227 393.157L81.9582 388.023L81.9306 388.033L81.903 388.043L83.9227 393.157ZM93.1542 396.995C97.1356 396.995 100.533 397.694 103.447 398.979L108.039 388.979C103.492 386.974 98.4976 386.029 93.1542 386.029V396.995ZM103.494 399C106.527 400.305 109.031 402.161 111.075 404.593L119.713 397.621C116.535 393.84 112.604 390.943 107.992 388.959L103.494 399ZM111.191 404.727C113.327 407.108 115.025 410.076 116.218 413.74L126.878 410.406C125.274 405.48 122.868 401.137 119.597 397.488L111.191 404.727ZM116.252 413.84C117.516 417.48 118.191 421.668 118.191 426.466H129.381C129.381 420.664 128.564 415.257 126.844 410.306L116.252 413.84ZM118.191 426.466V458.405H129.381V426.466H118.191ZM118.191 458.405C118.191 458.402 118.19 458.184 118.301 457.838C118.419 457.469 118.663 456.969 119.124 456.49C120.133 455.444 121.254 455.389 121.408 455.389V466.355C123.147 466.355 125.458 465.889 127.259 464.02C129.004 462.21 129.381 459.997 129.381 458.405H118.191ZM121.408 455.389C121.621 455.389 121.977 455.423 122.403 455.583C122.842 455.749 123.234 456.004 123.547 456.31L115.634 464.064C117.29 465.687 119.391 466.355 121.408 466.355V455.389ZM123.547 456.31C123.858 456.615 124.118 457 124.287 457.43C124.451 457.847 124.485 458.196 124.485 458.405H113.296C113.296 460.382 113.977 462.44 115.634 464.064L123.547 456.31ZM124.485 458.405V426.466H113.296V458.405H124.485ZM124.485 426.466C124.485 416.221 121.995 407.452 116.311 400.858L107.763 407.935C111.217 411.942 113.296 417.886 113.296 426.466H124.485ZM116.341 400.894C110.572 394.086 102.61 390.826 93.1542 390.826V401.792C99.7373 401.792 104.364 403.925 107.733 407.9L116.341 400.894ZM93.1542 390.826C88.7419 390.826 84.5284 391.801 80.5813 393.736L85.5856 403.544C87.9794 402.371 90.4796 401.792 93.1542 401.792V390.826ZM80.5813 393.736C76.7242 395.626 73.3475 398.23 70.4633 401.491L78.9192 408.673C80.8837 406.452 83.1019 404.761 85.5856 403.544L80.5813 393.736ZM70.3931 401.572C67.6239 404.829 65.4564 408.575 63.8578 412.752L74.3349 416.603C75.5338 413.47 77.0962 410.819 78.9893 408.592L70.3931 401.572ZM63.8156 412.866C62.2852 417.151 61.5433 421.698 61.5433 426.466H72.733C72.733 422.827 73.2966 419.514 74.3771 416.489L63.8156 412.866ZM61.5433 426.466V458.405H72.733V426.466H61.5433ZM61.5433 458.405C61.5433 458.402 61.5416 458.184 61.6529 457.838C61.7715 457.469 62.0152 456.969 62.4762 456.49C63.4844 455.444 64.6063 455.389 64.7604 455.389V466.355C66.4997 466.355 68.8103 465.889 70.6112 464.02C72.3555 462.21 72.733 459.997 72.733 458.405H61.5433ZM64.7604 455.389C65.1171 455.389 65.4834 455.454 65.8246 455.583C66.1579 455.709 66.3897 455.865 66.5237 455.975L59.3603 464.399C60.8012 465.576 62.6459 466.355 64.7604 466.355V455.389ZM66.8981 456.31C67.2099 456.615 67.4706 457 67.6395 457.43C67.8032 457.847 67.8375 458.196 67.8375 458.405H56.6478C56.6478 460.382 57.3292 462.44 58.9859 464.064L66.8981 456.31ZM67.8375 458.405V426.466H56.6478V458.405H67.8375ZM67.8375 426.466C67.8375 416.221 65.3469 407.452 59.6628 400.858L51.1152 407.935C54.5693 411.942 56.6478 417.886 56.6478 426.466H67.8375ZM59.693 400.894C53.9237 394.086 45.9619 390.826 36.5064 390.826V401.792C43.0895 401.792 47.716 403.925 51.085 407.9L59.693 400.894ZM36.5064 390.826C32.0941 390.826 27.8806 391.801 23.9335 393.736L28.9378 403.544C31.3316 402.371 33.8318 401.792 36.5064 401.792V390.826ZM23.9335 393.736C20.0763 395.626 16.6997 398.23 13.8154 401.491L22.2713 408.673C24.2359 406.452 26.4541 404.761 28.9378 403.544L23.9335 393.736ZM13.7453 401.572C10.976 404.829 8.80848 408.575 7.20992 412.752L17.6871 416.603C18.886 413.47 20.4484 410.819 22.3415 408.592L13.7453 401.572ZM7.16779 412.866C5.63737 417.151 4.89549 421.698 4.89549 426.466H16.0852C16.0852 422.827 16.6488 419.514 17.7293 416.489L7.16779 412.866ZM4.89549 426.466V458.405H16.0852V426.466H4.89549ZM4.89549 458.405C4.89549 458.402 4.89385 458.184 5.00508 457.838C5.12364 457.469 5.3674 456.969 5.82836 456.49C6.8366 455.444 7.95842 455.389 8.11253 455.389V466.355C9.85184 466.355 12.1626 465.889 13.9634 464.02C15.7076 462.21 16.0852 459.997 16.0852 458.405H4.89549ZM8.11253 455.389C8.46923 455.389 8.83559 455.454 9.17684 455.583C9.5101 455.709 9.74187 455.865 9.87593 455.975L2.71247 464.399C4.15343 465.576 5.99814 466.355 8.11253 466.355V455.389ZM10.2504 456.31C10.562 456.615 10.8228 457 10.9916 457.43C11.1554 457.847 11.1897 458.196 11.1897 458.405H0C0 460.382 0.68134 462.44 2.33805 464.064L10.2504 456.31ZM11.1897 458.405V394.664H0V458.405H11.1897ZM11.1897 394.664C11.1897 395.012 11.123 395.438 10.9342 395.882C10.7458 396.325 10.4883 396.663 10.2504 396.897L2.33804 389.143C0.83455 390.616 0 392.554 0 394.664H11.1897ZM9.87592 397.232C9.74186 397.341 9.51009 397.497 9.17682 397.623C8.83559 397.752 8.46923 397.817 8.11253 397.817V386.851C5.99815 386.851 4.15345 387.631 2.71248 388.807L9.87592 397.232ZM8.11253 397.817C7.91236 397.817 7.47962 397.787 6.93977 397.567C6.36577 397.332 5.83193 396.947 5.42215 396.445L14.1598 389.594C12.4652 387.518 10.0933 386.851 8.11253 386.851V397.817ZM5.83482 396.897C5.52315 396.591 5.26244 396.206 5.09357 395.776C4.92983 395.359 4.89549 395.01 4.89549 394.802H16.0852C16.0852 392.824 15.4038 390.766 13.7471 389.143L5.83482 396.897ZM4.89549 394.802V410.839H16.0852V394.802H4.89549ZM15.729 412.765C16.6738 410.296 17.8658 408.168 19.2807 406.344L10.3719 399.708C8.24346 402.453 6.54487 405.535 5.25172 408.914L15.729 412.765ZM19.3436 406.261C20.804 404.303 22.477 402.63 24.366 401.223L17.5953 392.492C14.822 394.558 12.3921 396.998 10.3091 399.791L19.3436 406.261ZM24.366 401.223C26.2665 399.808 28.2343 398.761 30.2756 398.046L26.5121 387.719C23.3316 388.832 20.3573 390.435 17.5953 392.492L24.366 401.223ZM30.2178 398.066C32.3288 397.353 34.5095 396.995 36.7861 396.995V386.029C33.2814 386.029 29.8672 386.585 26.5699 387.699L30.2178 398.066ZM36.7861 396.995C42.9717 396.995 47.7114 398.639 51.404 401.631L58.5347 393.181C52.5296 388.314 45.1472 386.029 36.7861 386.029V396.995ZM51.4444 401.664C55.3284 404.752 58.1592 409.117 59.7693 415.113L70.5906 412.323C68.4709 404.428 64.4946 397.919 58.4943 393.148L51.4444 401.664ZM70.5306 415.32C71.4001 412.532 72.6043 410.077 74.1218 407.921L64.9102 401.695C62.6978 404.839 61.0112 408.325 59.8293 412.116L70.5306 415.32ZM74.1712 407.85C75.7464 405.534 77.5155 403.626 79.4655 402.083L72.4346 393.552C69.5358 395.846 67.0154 398.599 64.8608 401.767L74.1712 407.85ZM79.564 402.003C81.5252 400.377 83.6464 399.141 85.9424 398.27L81.903 388.043C78.4177 389.366 75.2237 391.237 72.3361 393.632L79.564 402.003ZM85.8872 398.291C88.2463 397.424 90.6582 396.995 93.1542 396.995V386.029C89.3093 386.029 85.567 386.696 81.9582 388.023L85.8872 398.291ZM152.701 393.02L148.745 396.897L148.925 397.073L149.119 397.232L152.701 393.02ZM152.701 460.187L149.119 455.975L148.925 456.134L148.745 456.31L152.701 460.187ZM149.204 393.02L145.248 389.143L145.029 389.357L144.835 389.594L149.204 393.02ZM150.184 373.144C150.184 373.116 150.191 372.987 150.264 372.817C150.298 372.739 150.335 372.674 150.369 372.625C150.403 372.577 150.425 372.555 150.423 372.556L158.335 380.31C160.306 378.38 161.373 375.894 161.373 373.144H150.184ZM150.423 372.556C150.423 372.556 150.444 372.536 150.494 372.503C150.544 372.469 150.61 372.433 150.689 372.4C150.863 372.329 150.994 372.321 151.023 372.321V383.287C153.829 383.287 156.366 382.241 158.335 380.31L150.423 372.556ZM151.023 372.321C151.051 372.321 151.183 372.329 151.356 372.4C151.436 372.433 151.502 372.469 151.552 372.503C151.601 372.536 151.624 372.558 151.621 372.556L143.709 380.31C145.68 382.241 148.216 383.287 151.023 383.287V372.321ZM151.621 372.556C151.621 372.556 151.643 372.577 151.676 372.625C151.711 372.674 151.748 372.739 151.781 372.817C151.853 372.987 151.862 373.116 151.862 373.144H140.672C140.672 375.894 141.74 378.38 143.709 380.31L151.621 372.556ZM151.862 373.144C151.862 373.172 151.853 373.301 151.781 373.47C151.748 373.548 151.711 373.613 151.676 373.662C151.643 373.71 151.621 373.731 151.621 373.731L143.709 365.977C141.74 367.907 140.672 370.394 140.672 373.144H151.862ZM151.621 373.731C151.624 373.729 151.601 373.751 151.552 373.784C151.502 373.818 151.436 373.855 151.356 373.887C151.183 373.958 151.051 373.966 151.023 373.966V363C148.216 363 145.68 364.046 143.709 365.977L151.621 373.731ZM151.023 373.966C150.994 373.966 150.863 373.958 150.689 373.887C150.61 373.855 150.544 373.818 150.494 373.784C150.444 373.751 150.423 373.731 150.423 373.731L158.335 365.977C156.366 364.046 153.829 363 151.023 363V373.966ZM150.423 373.731C150.425 373.732 150.403 373.71 150.369 373.662C150.335 373.613 150.298 373.548 150.264 373.47C150.191 373.301 150.184 373.172 150.184 373.144H161.373C161.373 370.394 160.306 367.907 158.335 365.977L150.423 373.731ZM151.023 397.817C150.668 397.817 150.233 397.752 149.78 397.567C149.328 397.382 148.983 397.13 148.745 396.897L156.657 389.142C155.154 387.669 153.176 386.851 151.023 386.851V397.817ZM149.119 397.232C148.902 397.055 148.583 396.73 148.326 396.226C148.061 395.705 147.946 395.158 147.946 394.664H159.135C159.135 392.196 157.951 390.17 156.283 388.807L149.119 397.232ZM147.946 394.664V458.405H159.135V394.664H147.946ZM147.946 458.405C147.946 458.071 148.013 457.605 148.251 457.101C148.489 456.593 148.82 456.219 149.119 455.975L156.283 464.399C158.153 462.871 159.135 460.717 159.135 458.405H147.946ZM148.745 456.31C148.983 456.076 149.328 455.824 149.78 455.639C150.233 455.454 150.668 455.389 151.023 455.389V466.355C153.176 466.355 155.154 465.537 156.657 464.064L148.745 456.31ZM151.023 455.389C151.177 455.389 152.298 455.444 153.307 456.49C153.768 456.969 154.012 457.469 154.13 457.838C154.241 458.184 154.24 458.402 154.24 458.405H143.05C143.05 459.997 143.427 462.21 145.172 464.02C146.972 465.889 149.283 466.355 151.023 466.355V455.389ZM154.24 458.405V394.664H143.05V458.405H154.24ZM154.24 394.664C154.24 394.872 154.209 395.166 154.092 395.507C153.975 395.855 153.793 396.175 153.573 396.445L144.835 389.594C143.593 391.116 143.05 392.903 143.05 394.664H154.24ZM153.16 396.897C152.849 397.202 152.456 397.458 152.016 397.623C151.591 397.784 151.235 397.817 151.023 397.817V386.851C149.005 386.851 146.905 387.519 145.248 389.143L153.16 396.897ZM279.615 393.979L277.319 398.979L277.342 398.99L277.366 399L279.615 393.979ZM289.266 401.107L284.947 404.593L285.004 404.66L285.063 404.727L289.266 401.107ZM295.42 412.073L290.089 413.74L290.106 413.79L290.123 413.84L295.42 412.073ZM285.909 404.397L281.604 407.9L281.62 407.918L281.634 407.935L285.909 404.397ZM248.563 405.082L244.335 401.491L244.3 401.531L244.265 401.572L248.563 405.082ZM242.969 414.678L237.73 412.752L237.708 412.809L237.687 412.866L242.969 414.678ZM236.814 460.187L232.858 464.064L233.038 464.24L233.232 464.399L236.814 460.187ZM229.261 404.397L224.956 407.9L224.972 407.918L224.987 407.935L229.261 404.397ZM191.916 405.082L187.687 401.491L187.652 401.531L187.618 401.572L191.916 405.082ZM186.321 414.678L181.082 412.752L181.06 412.809L181.039 412.866L186.321 414.678ZM180.166 460.187L176.21 464.064L176.39 464.24L176.585 464.399L180.166 460.187ZM180.166 393.02L176.585 388.807L176.39 388.967L176.21 389.143L180.166 393.02ZM183.663 393.02L179.294 396.445L179.487 396.682L179.706 396.897L183.663 393.02ZM184.363 410.839H178.768L189.6 412.765L184.363 410.839ZM188.699 403.026L193.153 406.344L193.184 406.303L193.216 406.261L188.699 403.026ZM202.266 392.883L200.442 387.699L200.413 387.709L200.384 387.719L202.266 392.883ZM228.842 397.406L225.275 401.631L225.296 401.648L225.317 401.664L228.842 397.406ZM239.052 413.718L233.641 415.113L238.65 433.769L244.403 415.32L239.052 413.718ZM243.388 404.808L247.994 407.921L248.018 407.885L248.043 407.85L243.388 404.808ZM249.822 397.817L253.337 402.083L253.387 402.043L253.435 402.003L249.822 397.817ZM257.795 393.157L255.83 388.023L255.802 388.033L255.775 388.043L257.795 393.157ZM267.026 396.995C271.008 396.995 274.405 397.694 277.319 398.979L281.911 388.979C277.365 386.974 272.369 386.029 267.026 386.029V396.995ZM277.366 399C280.399 400.305 282.903 402.161 284.947 404.593L293.584 397.621C290.406 393.84 286.476 390.943 281.864 388.959L277.366 399ZM285.063 404.727C287.199 407.108 288.897 410.076 290.089 413.74L300.75 410.406C299.145 405.48 296.741 401.137 293.469 397.488L285.063 404.727ZM290.123 413.84C291.387 417.48 292.063 421.668 292.063 426.466H303.253C303.253 420.664 302.436 415.257 300.716 410.306L290.123 413.84ZM292.063 426.466V458.405H303.253V426.466H292.063ZM292.063 458.405C292.063 458.402 292.061 458.184 292.173 457.838C292.292 457.469 292.534 456.969 292.995 456.49C294.004 455.444 295.126 455.389 295.28 455.389V466.355C297.019 466.355 299.33 465.889 301.131 464.02C302.875 462.21 303.253 459.997 303.253 458.405H292.063ZM295.28 455.389C295.493 455.389 295.849 455.423 296.274 455.583C296.714 455.749 297.106 456.004 297.418 456.31L289.505 464.064C291.163 465.687 293.263 466.355 295.28 466.355V455.389ZM297.418 456.31C297.73 456.615 297.991 457 298.159 457.43C298.323 457.847 298.357 458.196 298.357 458.405H287.168C287.168 460.382 287.849 462.44 289.505 464.064L297.418 456.31ZM298.357 458.405V426.466H287.168V458.405H298.357ZM298.357 426.466C298.357 416.221 295.867 407.452 290.182 400.858L281.634 407.935C285.089 411.942 287.168 417.886 287.168 426.466H298.357ZM290.213 400.894C284.443 394.086 276.482 390.826 267.026 390.826V401.792C273.609 401.792 278.236 403.925 281.604 407.9L290.213 400.894ZM267.026 390.826C262.614 390.826 258.4 391.801 254.454 393.736L259.458 403.544C261.851 402.371 264.352 401.792 267.026 401.792V390.826ZM254.454 393.736C250.597 395.626 247.219 398.23 244.335 401.491L252.791 408.673C254.756 406.452 256.974 404.761 259.458 403.544L254.454 393.736ZM244.265 401.572C241.496 404.829 239.329 408.575 237.73 412.752L248.206 416.603C249.406 413.47 250.968 410.819 252.861 408.592L244.265 401.572ZM237.687 412.866C236.157 417.151 235.415 421.698 235.415 426.466H246.605C246.605 422.827 247.168 419.514 248.249 416.489L237.687 412.866ZM235.415 426.466V458.405H246.605V426.466H235.415ZM235.415 458.405C235.415 458.402 235.413 458.184 235.525 457.838C235.644 457.469 235.887 456.969 236.348 456.49C237.356 455.444 238.478 455.389 238.633 455.389V466.355C240.371 466.355 242.682 465.889 244.484 464.02C246.227 462.21 246.605 459.997 246.605 458.405H235.415ZM238.633 455.389C238.989 455.389 239.355 455.454 239.697 455.583C240.03 455.709 240.262 455.865 240.396 455.975L233.232 464.399C234.674 465.576 236.518 466.355 238.633 466.355V455.389ZM240.77 456.31C241.082 456.615 241.343 457 241.512 457.43C241.675 457.847 241.71 458.196 241.71 458.405H230.52C230.52 460.382 231.201 462.44 232.858 464.064L240.77 456.31ZM241.71 458.405V426.466H230.52V458.405H241.71ZM241.71 426.466C241.71 416.221 239.219 407.452 233.535 400.858L224.987 407.935C228.441 411.942 230.52 417.886 230.52 426.466H241.71ZM233.565 400.894C227.795 394.086 219.834 390.826 210.379 390.826V401.792C216.961 401.792 221.588 403.925 224.956 407.9L233.565 400.894ZM210.379 390.826C205.966 390.826 201.752 391.801 197.806 393.736L202.81 403.544C205.203 402.371 207.704 401.792 210.379 401.792V390.826ZM197.806 393.736C193.949 395.626 190.572 398.23 187.687 401.491L196.143 408.673C198.108 406.452 200.326 404.761 202.81 403.544L197.806 393.736ZM187.618 401.572C184.848 404.829 182.681 408.575 181.082 412.752L191.559 416.603C192.758 413.47 194.32 410.819 196.214 408.592L187.618 401.572ZM181.039 412.866C179.51 417.151 178.768 421.698 178.768 426.466H189.957C189.957 422.827 190.52 419.514 191.601 416.489L181.039 412.866ZM178.768 426.466V458.405H189.957V426.466H178.768ZM178.768 458.405C178.768 458.402 178.765 458.184 178.877 457.838C178.996 457.469 179.239 456.969 179.7 456.49C180.708 455.444 181.83 455.389 181.985 455.389V466.355C183.724 466.355 186.034 465.889 187.836 464.02C189.579 462.21 189.957 459.997 189.957 458.405H178.768ZM181.985 455.389C182.342 455.389 182.708 455.454 183.049 455.583C183.382 455.709 183.614 455.865 183.748 455.975L176.585 464.399C178.026 465.576 179.87 466.355 181.985 466.355V455.389ZM184.122 456.31C184.434 456.615 184.695 457 184.864 457.43C185.027 457.847 185.062 458.196 185.062 458.405H173.872C173.872 460.382 174.554 462.44 176.21 464.064L184.122 456.31ZM185.062 458.405V394.664H173.872V458.405H185.062ZM185.062 394.664C185.062 395.012 184.995 395.438 184.806 395.882C184.618 396.325 184.36 396.663 184.122 396.897L176.21 389.143C174.707 390.616 173.872 392.554 173.872 394.664H185.062ZM183.748 397.232C183.614 397.341 183.382 397.497 183.049 397.623C182.708 397.752 182.342 397.817 181.985 397.817V386.851C179.87 386.851 178.026 387.631 176.585 388.807L183.748 397.232ZM181.985 397.817C181.784 397.817 181.351 397.787 180.812 397.567C180.238 397.332 179.704 396.947 179.294 396.445L188.032 389.594C186.337 387.518 183.965 386.851 181.985 386.851V397.817ZM179.706 396.897C179.395 396.591 179.135 396.206 178.966 395.776C178.801 395.359 178.768 395.01 178.768 394.802H189.957C189.957 392.824 189.276 390.766 187.619 389.143L179.706 396.897ZM178.768 394.802V410.839H189.957V394.802H178.768ZM189.6 412.765C190.546 410.296 191.738 408.168 193.153 406.344L184.244 399.708C182.116 402.453 180.417 405.535 179.123 408.914L189.6 412.765ZM193.216 406.261C194.676 404.303 196.349 402.63 198.238 401.223L191.467 392.492C188.694 394.558 186.264 396.998 184.181 399.791L193.216 406.261ZM198.238 401.223C200.139 399.808 202.106 398.761 204.147 398.046L200.384 387.719C197.204 388.832 194.23 390.435 191.467 392.492L198.238 401.223ZM204.09 398.066C206.2 397.353 208.381 396.995 210.658 396.995V386.029C207.154 386.029 203.739 386.585 200.442 387.699L204.09 398.066ZM210.658 396.995C216.844 396.995 221.583 398.639 225.275 401.631L232.407 393.181C226.401 388.314 219.019 386.029 210.658 386.029V396.995ZM225.317 401.664C229.201 404.752 232.031 409.117 233.641 415.113L244.462 412.323C242.343 404.428 238.366 397.919 232.366 393.148L225.317 401.664ZM244.403 415.32C245.272 412.532 246.476 410.077 247.994 407.921L238.782 401.695C236.569 404.839 234.883 408.325 233.701 412.116L244.403 415.32ZM248.043 407.85C249.619 405.534 251.388 403.626 253.337 402.083L246.306 393.552C243.407 395.846 240.887 398.599 238.732 401.767L248.043 407.85ZM253.435 402.003C255.397 400.377 257.518 399.141 259.815 398.27L255.775 388.043C252.29 389.366 249.096 391.237 246.208 393.632L253.435 402.003ZM259.759 398.291C262.119 397.424 264.53 396.995 267.026 396.995V386.029C263.182 386.029 259.439 386.696 255.83 388.023L259.759 398.291ZM331.609 452.648L327.652 456.525L327.732 456.602L327.813 456.676L331.609 452.648ZM323.356 460.872L319.245 464.591L319.396 464.752L319.561 464.901L323.356 460.872ZM323.356 452.648L319.561 448.619L319.479 448.693L319.4 448.77L323.356 452.648ZM327.553 456.486C327.619 456.486 327.65 456.492 327.65 456.492C327.65 456.492 327.638 456.489 327.616 456.48C327.606 456.476 327.597 456.472 327.591 456.469C327.584 456.465 327.582 456.463 327.582 456.463C327.582 456.463 327.606 456.48 327.652 456.525L335.564 448.77C333.395 446.644 330.619 445.52 327.553 445.52V456.486ZM327.813 456.676C327.859 456.718 327.873 456.737 327.868 456.732C327.867 456.729 327.862 456.723 327.856 456.713C327.85 456.703 327.845 456.691 327.839 456.678C327.827 456.651 327.823 456.634 327.823 456.637C327.824 456.642 327.832 456.68 327.832 456.76H339.022C339.022 453.615 337.786 450.774 335.403 448.619L327.813 456.676ZM327.832 456.76C327.832 456.797 327.829 456.807 327.83 456.799C327.832 456.79 327.836 456.78 327.839 456.773C327.848 456.751 327.822 456.828 327.652 456.995L335.564 464.749C337.732 462.625 339.022 459.893 339.022 456.76H327.832ZM327.652 456.995C327.606 457.039 327.582 457.056 327.582 457.056C327.582 457.056 327.584 457.055 327.591 457.051C327.597 457.047 327.606 457.043 327.616 457.039C327.638 457.031 327.65 457.028 327.65 457.028C327.65 457.028 327.619 457.034 327.553 457.034V468C330.619 468 333.395 466.876 335.564 464.749L327.652 456.995ZM327.553 457.034C327.487 457.034 327.447 457.028 327.429 457.025C327.412 457.022 327.4 457.018 327.393 457.015C327.384 457.012 327.303 456.981 327.151 456.843L319.561 464.901C321.761 466.891 324.499 468 327.553 468V457.034ZM327.467 457.153C327.327 457.004 327.295 456.925 327.292 456.917C327.288 456.908 327.285 456.898 327.282 456.88C327.278 456.862 327.273 456.824 327.273 456.76H316.083C316.083 459.752 317.214 462.436 319.245 464.591L327.467 457.153ZM327.273 456.76C327.273 456.654 327.282 456.589 327.287 456.558C327.293 456.529 327.296 456.524 327.292 456.534C327.287 456.546 327.281 456.557 327.277 456.563C327.273 456.568 327.281 456.555 327.312 456.525L319.4 448.77C317.163 450.962 316.083 453.759 316.083 456.76H327.273ZM327.151 456.676C327.303 456.539 327.384 456.508 327.393 456.505C327.4 456.501 327.412 456.498 327.429 456.495C327.447 456.491 327.487 456.486 327.553 456.486V445.52C324.499 445.52 321.761 446.629 319.561 448.619L327.151 456.676ZM365.669 420.572L363.256 425.518L363.297 425.538L363.338 425.556L365.669 420.572ZM372.803 422.902L371.588 428.255L371.704 428.28L371.819 428.3L372.803 422.902ZM380.076 423.999L379.382 429.439L379.459 429.449L379.536 429.456L380.076 423.999ZM389.028 425.507L387.709 430.835L387.727 430.84L387.746 430.844L389.028 425.507ZM397.56 428.796L394.707 433.513L394.812 433.574L394.918 433.63L397.56 428.796ZM406.511 443.052L412.104 443.209L412.106 443.131V443.052H406.511ZM403.574 451.414L399.14 448.071L399.12 448.096L403.574 451.414ZM396.86 457.171L394.03 452.441L393.994 452.462L393.957 452.484L396.86 457.171ZM388.188 460.735L389.47 466.072L389.546 466.055L389.62 466.035L388.188 460.735ZM365.949 459.775L364.075 464.942L364.127 464.96L364.18 464.977L365.949 459.775ZM355.459 454.018L359.123 449.875L358.924 449.706L358.71 449.557L355.459 454.018ZM354.06 452.373L348.632 453.703L348.74 454.129L348.917 454.533L354.06 452.373ZM354.759 450.317L358.716 454.194L358.88 454.033L359.03 453.859L354.759 450.317ZM358.256 450.043L361.991 445.961L361.856 445.842L361.712 445.732L358.256 450.043ZM368.606 455.526L366.945 460.762L366.96 460.767L366.977 460.772L368.606 455.526ZM381.894 456.897L382.35 462.362L382.386 462.359L382.425 462.355L381.894 456.897ZM388.188 455.663L389.755 460.927L389.824 460.907L389.894 460.885L388.188 455.663ZM399.518 448.672L403.837 452.158L403.886 452.099L403.935 452.039L399.518 448.672ZM401.616 443.052L407.205 443.29L407.211 443.171V443.052H401.616ZM394.063 432.223L391.649 437.17L391.691 437.189L391.732 437.208L394.063 432.223ZM386.93 430.03L385.715 435.382L385.831 435.407L385.946 435.428L386.93 430.03ZM370.565 427.289L369.246 432.617L369.342 432.64L369.437 432.659L370.565 427.289ZM362.032 424.136L359.18 428.853L359.284 428.913L359.391 428.969L362.032 424.136ZM355.738 418.516L351.055 421.516L351.125 421.619L351.197 421.719L355.738 418.516ZM353.36 409.469L347.78 409.078L347.766 409.273V409.469H353.36ZM360.634 397.132L363.925 401.566L363.991 401.519L364.054 401.47L360.634 397.132ZM367.348 393.431L365.404 388.289L365.371 388.301L365.339 388.313L367.348 393.431ZM374.901 391.649L375.518 397.098L375.55 397.095L375.581 397.091L374.901 391.649ZM388.468 392.608L387.006 397.901L387.072 397.918L387.138 397.934L388.468 392.608ZM399.938 397.817L403.519 393.605L403.46 393.557L403.4 393.51L399.938 397.817ZM401.056 399.599L395.628 400.929L395.652 401.018L395.677 401.106L401.056 399.599ZM400.357 401.655L404.314 405.532L404.445 405.403L404.568 405.266L400.357 401.655ZM397 401.792L393.524 406.088L393.705 406.229L393.897 406.355L397 401.792ZM387.069 397.269L385.619 402.565L385.696 402.585L385.774 402.603L387.069 397.269ZM375.46 396.584L376.045 402.036L376.148 402.026L376.251 402.011L375.46 396.584ZM369.725 397.954L371.494 403.156L371.566 403.133L371.638 403.107L369.725 397.954ZM364.27 400.696L367.374 405.258L367.461 405.201L367.546 405.141L364.27 400.696ZM359.934 404.671L355.49 401.34L355.474 401.361L355.459 401.381L359.934 404.671ZM352.661 409.743C352.661 413.415 353.612 416.94 355.963 419.857L364.745 413.062C364.298 412.507 363.851 411.554 363.851 409.743H352.661ZM355.963 419.857C357.919 422.286 360.381 424.171 363.256 425.518L368.083 415.625C366.667 414.962 365.586 414.106 364.745 413.062L355.963 419.857ZM363.338 425.556C365.951 426.73 368.705 427.626 371.588 428.255L374.017 417.55C371.865 417.081 369.863 416.424 368 415.587L363.338 425.556ZM371.819 428.3C374.51 428.771 377.032 429.152 379.382 429.439L380.77 418.558C378.644 418.298 376.317 417.947 373.786 417.504L371.819 428.3ZM379.536 429.456C382.143 429.703 384.866 430.16 387.709 430.835L390.346 420.178C387.035 419.391 383.79 418.842 380.615 418.541L379.536 429.456ZM387.746 430.844C390.425 431.462 392.73 432.365 394.707 433.513L400.412 424.079C397.354 422.303 393.97 421.014 390.309 420.169L387.746 430.844ZM394.918 433.63C396.802 434.619 398.288 435.898 399.453 437.483L408.535 431.076C406.342 428.092 403.54 425.716 400.202 423.963L394.918 433.63ZM399.453 437.483C400.283 438.613 400.917 440.33 400.917 443.052H412.106C412.106 438.646 411.061 434.515 408.535 431.076L399.453 437.483ZM400.919 442.896C400.857 445.021 400.236 446.674 399.14 448.071L408.009 454.757C410.643 451.402 411.98 447.48 412.104 443.209L400.919 442.896ZM399.12 448.096C397.82 449.771 396.15 451.224 394.03 452.441L399.69 461.901C402.98 460.011 405.784 457.626 408.029 454.731L399.12 448.096ZM393.957 452.484C391.836 453.746 389.447 454.737 386.757 455.435L389.62 466.035C393.271 465.089 396.662 463.703 399.764 461.858L393.957 452.484ZM386.907 455.398C384.104 456.044 381.506 456.349 379.097 456.349V467.315C382.469 467.315 385.931 466.888 389.47 466.072L386.907 455.398ZM379.097 456.349C375.109 456.349 371.326 455.752 367.718 454.574L364.18 464.977C368.964 466.54 373.946 467.315 379.097 467.315V456.349ZM367.823 454.609C364.154 453.331 361.298 451.723 359.123 449.875L351.794 458.162C355.213 461.066 359.351 463.296 364.075 464.942L367.823 454.609ZM358.71 449.557C358.734 449.573 358.815 449.634 358.917 449.754C359.022 449.877 359.123 450.033 359.203 450.213L348.917 454.533C349.651 456.21 350.832 457.517 352.207 458.48L358.71 449.557ZM359.488 451.044C359.641 451.644 359.638 452.355 359.403 453.045C359.184 453.688 358.852 454.06 358.716 454.194L350.802 446.44C349.087 448.122 347.866 450.703 348.632 453.703L359.488 451.044ZM359.03 453.859C358.934 453.97 358.221 454.716 356.848 454.823C356.217 454.873 355.69 454.759 355.328 454.625C354.986 454.498 354.812 454.364 354.799 454.354L361.712 445.732C360.417 444.734 358.436 443.698 355.956 443.892C353.419 444.091 351.609 445.477 350.488 446.776L359.03 453.859ZM354.521 454.126C357.936 457.126 362.139 459.296 366.945 460.762L370.268 450.291C366.682 449.197 363.984 447.712 361.991 445.961L354.521 454.126ZM366.977 460.772C371.957 462.257 377.094 462.782 382.35 462.362L381.439 451.432C377.556 451.743 373.835 451.354 370.236 450.281L366.977 460.772ZM382.425 462.355C384.791 462.134 387.238 461.646 389.755 460.927L386.622 450.399C384.662 450.96 382.914 451.294 381.364 451.439L382.425 462.355ZM389.894 460.885C392.633 460.026 395.198 458.884 397.568 457.447L391.677 448.123C390.131 449.061 388.407 449.838 386.483 450.441L389.894 460.885ZM397.568 457.447C399.983 455.981 402.098 454.227 403.837 452.158L395.199 445.187C394.327 446.224 393.178 447.212 391.677 448.123L397.568 457.447ZM403.935 452.039C405.96 449.486 407.062 446.517 407.205 443.29L396.027 442.814C395.983 443.791 395.687 444.568 395.101 445.306L403.935 452.039ZM407.211 443.052C407.211 439.38 406.26 435.855 403.909 432.938L395.127 439.733C395.574 440.288 396.021 441.241 396.021 443.052H407.211ZM403.909 432.938C401.914 430.46 399.362 428.572 396.394 427.239L391.732 437.208C393.239 437.885 394.326 438.738 395.127 439.733L403.909 432.938ZM396.477 427.277C393.829 426.036 390.963 425.166 387.913 424.632L385.946 435.428C388.118 435.808 390.007 436.4 391.649 437.17L396.477 427.277ZM388.144 424.678C385.477 424.097 382.925 423.654 380.49 423.356L379.102 434.237C381.143 434.487 383.347 434.866 385.715 435.382L388.144 424.678ZM380.49 423.356C377.662 423.009 374.731 422.531 371.693 421.918L369.437 432.659C372.74 433.325 375.962 433.852 379.102 434.237L380.49 423.356ZM371.883 421.96C369.235 421.331 366.84 420.439 364.674 419.303L359.391 428.969C362.448 430.574 365.74 431.784 369.246 432.617L371.883 421.96ZM364.885 419.419C363.017 418.334 361.499 416.972 360.279 415.312L351.197 421.719C353.336 424.629 356.012 427.013 359.18 428.853L364.885 419.419ZM360.421 415.515C359.581 414.255 358.955 412.362 358.955 409.469H347.766C347.766 413.886 348.726 418.024 351.055 421.516L360.421 415.515ZM358.941 409.859C359.067 408.133 359.555 406.653 360.378 405.329L350.819 399.627C349.031 402.507 348.027 405.687 347.78 409.078L358.941 409.859ZM360.378 405.329C361.294 403.852 362.464 402.607 363.925 401.566L357.343 392.698C354.7 394.581 352.513 396.9 350.819 399.627L360.378 405.329ZM364.054 401.47C365.676 400.243 367.437 399.272 369.356 398.548L365.339 388.313C362.408 389.418 359.695 390.914 357.213 392.793L364.054 401.47ZM369.291 398.572C371.406 397.805 373.48 397.32 375.518 397.098L374.283 386.199C371.286 386.526 368.324 387.229 365.404 388.289L369.291 398.572ZM375.581 397.091C379.427 396.63 383.222 396.897 387.006 397.901L389.931 387.316C384.762 385.944 379.513 385.571 374.22 386.206L375.581 397.091ZM387.138 397.934C391.083 398.881 394.139 400.321 396.475 402.124L403.4 393.51C399.582 390.562 394.992 388.529 389.799 387.283L387.138 397.934ZM396.356 402.029C396.181 401.887 396.011 401.7 395.872 401.479C395.735 401.261 395.663 401.065 395.628 400.929L406.485 398.269C406.027 396.477 405.043 394.85 403.519 393.605L396.356 402.029ZM395.677 401.106C395.434 400.271 395.506 399.47 395.713 398.859C395.898 398.317 396.143 398.049 396.146 398.045L404.568 405.266C405.851 403.828 407.359 401.257 406.437 398.093L395.677 401.106ZM396.4 397.778C396.639 397.545 396.983 397.293 397.436 397.108C397.889 396.923 398.324 396.858 398.679 396.858V407.824C400.832 407.824 402.81 407.006 404.314 405.532L396.4 397.778ZM398.679 396.858C399.431 396.858 399.932 397.118 400.104 397.23L393.897 406.355C395.188 407.198 396.808 407.824 398.679 407.824V396.858ZM400.477 397.496C397.034 394.82 392.946 393.004 388.365 391.935L385.774 402.603C389.026 403.362 391.559 404.561 393.524 406.088L400.477 397.496ZM388.52 391.973C383.966 390.776 379.334 390.502 374.669 391.156L376.251 402.011C379.419 401.568 382.526 401.751 385.619 402.565L388.52 391.973ZM374.875 391.131C372.562 391.369 370.201 391.951 367.813 392.801L371.638 403.107C373.353 402.496 374.816 402.163 376.045 402.036L374.875 391.131ZM367.956 392.753C365.458 393.569 363.131 394.738 360.995 396.251L367.546 405.141C368.766 404.277 370.077 403.619 371.494 403.156L367.956 392.753ZM361.168 396.134C358.981 397.562 357.081 399.301 355.49 401.34L364.379 408.002C365.213 406.934 366.203 406.023 367.374 405.258L361.168 396.134ZM355.459 401.381C353.575 403.842 352.661 406.701 352.661 409.743H363.851C363.851 408.947 364.056 408.424 364.41 407.961L355.459 401.381ZM481.777 405.219L477.882 409.156L478.183 409.442L478.525 409.681L481.777 405.219ZM471.426 398.503L469.238 403.549L469.26 403.558L469.283 403.568L471.426 398.503ZM459.537 396.309V401.792H459.599L459.661 401.791L459.537 396.309ZM447.648 398.777L449.836 403.823L449.891 403.8L449.944 403.777L447.648 398.777ZM431.143 414.815L426.041 412.565L426.017 412.617L425.994 412.67L431.143 414.815ZM431.143 438.392L425.975 440.492L426.007 440.567L426.041 440.642L431.143 438.392ZM447.648 454.567L445.352 459.567L445.406 459.59L445.459 459.613L447.648 454.567ZM471.426 454.841L469.283 449.776L469.26 449.785L469.238 449.794L471.426 454.841ZM481.777 447.987L478.525 443.525L478.148 443.789L477.82 444.11L481.777 447.987ZM485.134 448.124L480.993 451.812L481.227 452.065L481.492 452.287L485.134 448.124ZM485.833 450.043L480.405 448.713L480.334 448.988L480.294 449.268L485.833 450.043ZM484.854 451.688L481.272 447.476L481.106 447.611L480.952 447.758L484.854 451.688ZM473.105 459.227L471.008 454.144L470.988 454.152L470.969 454.159L473.105 459.227ZM445.83 459.09L443.599 464.118L443.639 464.135L445.83 459.09ZM426.807 440.448L421.659 442.595L421.668 442.614L421.676 442.634L426.807 440.448ZM426.667 413.17L421.519 411.023L421.508 411.05L421.496 411.077L426.667 413.17ZM434.221 401.93L430.264 398.052L430.236 398.081L430.207 398.109L434.221 401.93ZM445.55 394.39L447.78 399.419L447.806 399.408L447.832 399.396L445.55 394.39ZM459.677 391.512V396.995H459.735L459.793 396.994L459.677 391.512ZM472.965 393.979L470.868 399.062L470.915 399.081L470.963 399.099L472.965 393.979ZM484.854 401.381L481.006 405.362L481.136 405.482L481.272 405.593L484.854 401.381ZM485.833 403.163L480.281 403.843L480.323 404.172L480.405 404.493L485.833 403.163ZM481.177 401.342C481.559 400.968 482.408 400.422 483.595 400.422C484.608 400.422 485.128 400.827 485.028 400.758L478.525 409.681C479.73 410.525 481.462 411.388 483.595 411.388C485.901 411.388 487.776 410.384 489.089 409.096L481.177 401.342ZM485.671 401.283C482.106 397.895 478.066 395.265 473.569 393.438L469.283 403.568C472.431 404.847 475.292 406.695 477.882 409.156L485.671 401.283ZM473.614 393.456C469.128 391.588 464.373 390.72 459.413 390.828L459.661 401.791C463.092 401.716 466.264 402.311 469.238 403.549L473.614 393.456ZM459.537 390.826C454.57 390.826 449.822 391.805 445.352 393.777L449.944 403.777C452.933 402.459 456.111 401.792 459.537 401.792V390.826ZM445.459 393.731C441.085 395.552 437.218 398.091 433.901 401.342L441.813 409.096C444.091 406.864 446.75 405.108 449.836 403.823L445.459 393.731ZM433.901 401.342C430.607 404.569 427.988 408.324 426.041 412.565L436.245 417.065C437.655 413.994 439.511 411.352 441.813 409.096L433.901 401.342ZM425.994 412.67C424.104 417.028 423.171 421.643 423.171 426.466H434.36C434.36 423.064 435.012 419.912 436.292 416.959L425.994 412.67ZM423.171 426.466C423.171 431.364 424.097 436.055 425.975 440.492L436.311 436.292C435.018 433.235 434.36 429.976 434.36 426.466H423.171ZM426.041 440.642C427.988 444.882 430.607 448.637 433.901 451.864L441.813 444.11C439.511 441.854 437.655 439.212 436.245 436.142L426.041 440.642ZM433.901 451.864C437.194 455.091 441.025 457.658 445.352 459.567L449.944 449.566C446.811 448.185 444.114 446.366 441.813 444.11L433.901 451.864ZM445.459 459.613C449.866 461.448 454.532 462.409 459.413 462.516L459.661 451.552C456.149 451.476 452.889 450.792 449.836 449.52L445.459 459.613ZM459.413 462.516C464.373 462.624 469.128 461.756 473.614 459.887L469.238 449.794C466.264 451.033 463.092 451.627 459.661 451.552L459.413 462.516ZM473.569 459.906C478.104 458.063 482.164 455.362 485.732 451.864L477.82 444.11C475.235 446.643 472.393 448.512 469.283 449.776L473.569 459.906ZM485.028 452.449C485.093 452.403 484.485 452.86 483.362 452.814C482.088 452.762 481.279 452.12 480.993 451.812L489.273 444.436C488.055 443.123 486.22 441.955 483.828 441.858C481.585 441.766 479.765 442.657 478.525 443.525L485.028 452.449ZM481.492 452.287C481.255 452.088 480.81 451.63 480.529 450.859C480.234 450.05 480.261 449.279 480.405 448.713L491.26 451.373C491.591 450.077 491.595 448.62 491.066 447.171C490.553 445.76 489.664 444.708 488.775 443.961L481.492 452.287ZM480.294 449.268C480.348 448.9 480.478 448.52 480.686 448.171C480.888 447.831 481.113 447.605 481.272 447.476L488.436 455.9C489.938 454.673 491.061 452.946 491.371 450.818L480.294 449.268ZM480.952 447.758C478.011 450.562 474.706 452.679 471.008 454.144L475.202 464.311C480.268 462.303 484.795 459.394 488.755 455.618L480.952 447.758ZM470.969 454.159C467.345 455.626 463.642 456.349 459.817 456.349V467.315C465.13 467.315 470.285 466.301 475.241 464.295L470.969 454.159ZM459.817 456.349C455.598 456.349 451.684 455.573 448.02 454.045L443.639 464.135C448.74 466.263 454.15 467.315 459.817 467.315V456.349ZM448.06 454.062C444.405 452.505 441.216 450.379 438.456 447.674L430.544 455.428C434.31 459.119 438.674 462.02 443.599 464.118L448.06 454.062ZM438.456 447.674C435.695 444.968 433.527 441.843 431.938 438.262L421.676 442.634C423.817 447.46 426.777 451.737 430.544 455.428L438.456 447.674ZM431.955 438.301C430.396 434.71 429.605 430.874 429.605 426.74H418.415C418.415 432.293 419.488 437.595 421.659 442.595L431.955 438.301ZM429.605 426.74C429.605 422.568 430.365 418.76 431.838 415.263L421.496 411.077C419.427 415.986 418.415 421.226 418.415 426.74H429.605ZM431.815 415.317C433.423 411.614 435.566 408.441 438.233 405.75L430.207 398.109C426.534 401.814 423.641 406.136 421.519 411.023L431.815 415.317ZM438.176 405.807C440.937 403.101 444.126 400.976 447.78 399.419L443.319 389.362C438.394 391.46 434.03 394.361 430.264 398.052L438.176 405.807ZM447.832 399.396C451.462 397.807 455.388 396.995 459.677 396.995V386.029C453.894 386.029 448.403 387.135 443.267 389.384L447.832 399.396ZM459.793 396.994C463.469 396.919 467.147 397.589 470.868 399.062L475.062 388.896C470.016 386.897 464.836 385.922 459.561 386.03L459.793 396.994ZM470.963 399.099C474.633 400.477 477.973 402.547 481.006 405.362L488.701 397.401C484.647 393.636 480.061 390.771 474.966 388.859L470.963 399.099ZM481.272 405.593C481.035 405.4 480.786 405.124 480.592 404.769C480.398 404.417 480.312 404.088 480.281 403.843L491.384 402.483C491.121 400.422 490.123 398.547 488.436 397.169L481.272 405.593ZM480.405 404.493C480.252 403.893 480.255 403.182 480.49 402.492C480.708 401.849 481.04 401.476 481.177 401.342L489.089 409.096C490.806 407.415 492.025 404.834 491.26 401.833L480.405 404.493ZM559.326 401.107L555.008 404.593L555.065 404.66L555.124 404.727L559.326 401.107ZM567.019 460.187L563.437 455.975L563.242 456.134L563.063 456.31L567.019 460.187ZM563.522 460.187L559.153 463.612L559.347 463.849L559.566 464.064L563.522 460.187ZM555.969 404.397L551.665 407.9L551.683 407.921L551.701 407.942L555.969 404.397ZM518.903 405.082L523.141 408.662L523.172 408.628L523.202 408.592L518.903 405.082ZM506.874 369.854L502.919 365.977L502.699 366.191L502.506 366.429L506.874 369.854ZM511.21 410.839H505.615L516.502 412.622L511.21 410.839ZM515.406 402.889L510.972 399.546L510.93 399.599L510.889 399.654L515.406 402.889ZM521.561 396.858L524.917 401.244L524.947 401.223L521.561 396.858ZM537.366 396.995C541.238 396.995 544.591 397.688 547.52 398.979L552.111 388.979C547.579 386.98 542.634 386.029 537.366 386.029V396.995ZM547.52 398.979C550.461 400.277 552.941 402.133 555.008 404.593L563.645 397.621C560.49 393.867 556.628 390.971 552.111 388.979L547.52 398.979ZM555.124 404.727C557.284 407.135 559.038 410.139 560.324 413.84L570.917 410.306C569.219 405.418 566.777 401.11 563.529 397.488L555.124 404.727ZM560.324 413.84C561.588 417.48 562.263 421.668 562.263 426.466H573.453C573.453 420.664 572.636 415.257 570.917 410.306L560.324 413.84ZM562.263 426.466V458.405H573.453V426.466H562.263ZM562.263 458.405C562.263 458.071 562.331 457.605 562.569 457.101C562.808 456.593 563.138 456.219 563.437 455.975L570.601 464.399C572.471 462.871 573.453 460.717 573.453 458.405H562.263ZM563.063 456.31C563.301 456.076 563.646 455.824 564.098 455.639C564.551 455.454 564.986 455.389 565.34 455.389V466.355C567.494 466.355 569.471 465.537 570.975 464.064L563.063 456.31ZM565.34 455.389C565.554 455.389 565.91 455.423 566.335 455.583C566.774 455.749 567.166 456.004 567.479 456.31L559.566 464.064C561.222 465.687 563.323 466.355 565.34 466.355V455.389ZM567.891 456.761C568.494 457.499 568.557 458.209 568.557 458.405H557.368C557.368 460.063 557.805 461.961 559.153 463.612L567.891 456.761ZM568.557 458.405V426.466H557.368V458.405H568.557ZM568.557 426.466C568.557 416.266 565.997 407.513 560.238 400.852L551.701 407.942C555.266 412.064 557.368 418.024 557.368 426.466H568.557ZM560.273 400.894C554.518 394.102 546.612 390.826 537.226 390.826V401.792C543.693 401.792 548.283 403.909 551.665 407.9L560.273 400.894ZM537.226 390.826C532.814 390.826 528.601 391.801 524.653 393.736L529.657 403.544C532.052 402.371 534.552 401.792 537.226 401.792V390.826ZM524.653 393.736C520.774 395.637 517.417 398.266 514.605 401.572L523.202 408.592C525.053 406.416 527.197 404.75 529.657 403.544L524.653 393.736ZM514.665 401.502C511.857 404.695 509.674 408.424 508.07 412.615L518.547 416.466C519.741 413.346 521.288 410.77 523.141 408.662L514.665 401.502ZM508.07 412.615C506.423 416.919 505.615 421.458 505.615 426.192H516.805C516.805 422.702 517.397 419.473 518.547 416.466L508.07 412.615ZM505.615 426.192V458.405H516.805V426.192H505.615ZM505.615 458.405C505.615 458.196 505.65 457.847 505.813 457.43C505.982 457 506.243 456.615 506.555 456.31L514.467 464.064C516.124 462.44 516.805 460.382 516.805 458.405H505.615ZM506.555 456.31C506.866 456.004 507.259 455.749 507.699 455.583C508.124 455.423 508.48 455.389 508.692 455.389V466.355C510.71 466.355 512.81 465.687 514.467 464.064L506.555 456.31ZM508.692 455.389C508.847 455.389 509.969 455.444 510.977 456.49C511.438 456.969 511.682 457.469 511.8 457.838C511.912 458.184 511.909 458.402 511.909 458.405H500.72C500.72 459.997 501.098 462.21 502.842 464.02C504.643 465.889 506.954 466.355 508.692 466.355V455.389ZM511.909 458.405V371.499H500.72V458.405H511.909ZM511.909 371.499C511.909 371.706 511.879 372 511.763 372.342C511.644 372.689 511.464 373.009 511.244 373.279L502.506 366.429C501.264 367.95 500.72 369.738 500.72 371.499H511.909ZM510.831 373.731C510.519 374.036 510.126 374.292 509.687 374.457C509.262 374.618 508.906 374.651 508.692 374.651V363.685C506.675 363.685 504.575 364.353 502.919 365.977L510.831 373.731ZM508.692 374.651C508.48 374.651 508.124 374.618 507.699 374.457C507.259 374.292 506.866 374.036 506.555 373.731L514.467 365.977C512.81 364.353 510.71 363.685 508.692 363.685V374.651ZM506.555 373.731C506.317 373.498 506.059 373.16 505.871 372.717C505.682 372.272 505.615 371.847 505.615 371.499H516.805C516.805 369.388 515.971 367.45 514.467 365.977L506.555 373.731ZM505.615 371.499V410.839H516.805V371.499H505.615ZM516.502 412.622C517.354 410.191 518.499 408.035 519.924 406.124L510.889 399.654C508.771 402.495 507.118 405.64 505.92 409.057L516.502 412.622ZM519.842 406.232C521.425 404.214 523.122 402.564 524.917 401.244L518.204 392.471C515.525 394.441 513.118 396.812 510.972 399.546L519.842 406.232ZM524.947 401.223C526.816 399.831 528.808 398.786 530.938 398.066L527.29 387.699C524.011 388.807 520.969 390.412 518.176 392.492L524.947 401.223ZM530.938 398.066C533.069 397.346 535.204 396.995 537.366 396.995V386.029C533.934 386.029 530.568 386.591 527.29 387.699L530.938 398.066ZM637.294 394.253L634.971 399.241L635.037 399.271L635.103 399.299L637.294 394.253ZM656.457 413.033L651.308 415.18L651.337 415.245L651.368 415.31L656.457 413.033ZM656.457 440.311L651.349 438.074L651.337 438.099L651.326 438.125L656.457 440.311ZM637.294 459.09L639.526 464.118L639.551 464.107L639.577 464.096L637.294 459.09ZM609.46 459.09L607.137 464.078L607.203 464.107L607.269 464.135L609.46 459.09ZM590.298 440.311L585.149 442.458L585.178 442.523L585.209 442.588L590.298 440.311ZM590.298 413.033L585.19 410.796L585.178 410.821L585.167 410.846L590.298 413.033ZM609.46 394.253L611.691 399.282L611.717 399.271L611.743 399.259L609.46 394.253ZM635.476 454.704L637.665 459.75L637.695 459.737L637.725 459.724L635.476 454.704ZM651.981 438.529L646.858 436.325L646.831 436.384L651.981 438.529ZM651.981 414.815L646.831 416.959L646.855 417.012L646.88 417.065L651.981 414.815ZM635.476 398.777L633.18 403.777L633.256 403.81L633.333 403.842L635.476 398.777ZM611.418 398.777L613.607 403.823L613.661 403.8L613.714 403.777L611.418 398.777ZM594.913 414.815L589.812 412.565L589.787 412.617L589.764 412.67L594.913 414.815ZM594.913 438.529L589.745 440.629L589.777 440.704L589.812 440.779L594.913 438.529ZM611.418 454.704L609.122 459.704L609.176 459.727L609.23 459.75L611.418 454.704ZM623.447 396.858C627.628 396.858 631.446 397.664 634.971 399.241L639.619 389.265C634.564 387.004 629.152 385.892 623.447 385.892V396.858ZM635.103 399.299C638.849 400.86 642.067 402.984 644.808 405.669L652.721 397.915C648.934 394.204 644.506 391.302 639.485 389.208L635.103 399.299ZM644.808 405.669C647.549 408.355 649.715 411.51 651.308 415.18L661.605 410.886C659.469 405.966 656.507 401.626 652.721 397.915L644.808 405.669ZM651.368 415.31C652.977 418.764 653.799 422.507 653.799 426.603H664.989C664.989 421.013 663.853 415.708 661.547 410.756L651.368 415.31ZM653.799 426.603C653.799 430.699 652.977 434.504 651.349 438.074L661.565 442.547C663.853 437.528 664.989 432.194 664.989 426.603H653.799ZM651.326 438.125C649.737 441.706 647.569 444.831 644.808 447.537L652.721 455.291C656.487 451.599 659.447 447.323 661.587 442.497L651.326 438.125ZM644.808 447.537C642.047 450.243 638.796 452.427 635.012 454.084L639.577 464.096C644.558 461.915 648.954 458.982 652.721 455.291L644.808 447.537ZM635.063 454.062C631.517 455.573 627.666 456.349 623.447 456.349V467.315C629.112 467.315 634.493 466.263 639.526 464.118L635.063 454.062ZM623.447 456.349C619.229 456.349 615.315 455.573 611.651 454.045L607.269 464.135C612.37 466.263 617.781 467.315 623.447 467.315V456.349ZM611.784 454.102C608.088 452.449 604.868 450.262 602.087 447.537L594.175 455.291C597.92 458.962 602.253 461.893 607.137 464.078L611.784 454.102ZM602.087 447.537C599.305 444.811 597.074 441.655 595.388 438.034L585.209 442.588C587.438 447.374 590.429 451.62 594.175 455.291L602.087 447.537ZM595.446 438.164C593.887 434.573 593.095 430.737 593.095 426.603H581.905C581.905 432.156 582.979 437.458 585.149 442.458L595.446 438.164ZM593.095 426.603C593.095 422.469 593.887 418.694 595.428 415.219L585.167 410.846C582.979 415.779 581.905 421.051 581.905 426.603H593.095ZM595.406 415.269C597.097 411.561 599.326 408.376 602.087 405.669L594.175 397.915C590.409 401.606 587.415 405.915 585.19 410.796L595.406 415.269ZM602.087 405.669C604.848 402.964 608.037 400.839 611.691 399.282L607.229 389.225C602.305 391.323 597.941 394.224 594.175 397.915L602.087 405.669ZM611.743 399.259C615.386 397.664 619.268 396.858 623.447 396.858V385.892C617.743 385.892 612.3 387.004 607.177 389.247L611.743 399.259ZM623.447 462.517C628.444 462.517 633.202 461.608 637.665 459.75L633.287 449.657C630.29 450.906 627.029 451.551 623.447 451.551V462.517ZM637.725 459.724C642.15 457.821 646.047 455.251 649.364 452.001L641.451 444.247C639.172 446.48 636.45 448.297 633.227 449.683L637.725 459.724ZM649.364 452.001C652.68 448.75 655.272 444.96 657.13 440.673L646.831 436.384C645.52 439.409 643.729 442.015 641.451 444.247L649.364 452.001ZM657.104 440.733C659.102 436.272 660.093 431.544 660.093 426.603H648.904C648.904 430.069 648.217 433.292 646.858 436.325L657.104 440.733ZM660.093 426.603C660.093 421.662 659.102 416.962 657.083 412.565L646.88 417.065C648.217 419.978 648.904 423.137 648.904 426.603H660.093ZM657.13 412.67C655.272 408.384 652.68 404.593 649.364 401.342L641.451 409.096C643.729 411.329 645.52 413.935 646.831 416.959L657.13 412.67ZM649.364 401.342C646.022 398.069 642.088 395.528 637.619 393.712L633.333 403.842C636.51 405.133 639.197 406.887 641.451 409.096L649.364 401.342ZM637.772 393.777C633.285 391.798 628.489 390.826 623.447 390.826V401.792C626.984 401.792 630.207 402.466 633.18 403.777L637.772 393.777ZM623.447 390.826C618.406 390.826 613.609 391.798 609.122 393.777L613.714 403.777C616.687 402.466 619.91 401.792 623.447 401.792V390.826ZM609.23 393.731C604.857 395.552 600.988 398.091 597.672 401.342L605.584 409.096C607.861 406.864 610.521 405.108 613.607 403.823L609.23 393.731ZM597.672 401.342C594.379 404.569 591.759 408.324 589.812 412.565L600.016 417.065C601.426 413.994 603.282 411.352 605.584 409.096L597.672 401.342ZM589.764 412.67C587.868 417.043 586.941 421.706 586.941 426.603H598.13C598.13 423.093 598.788 419.897 600.063 416.959L589.764 412.67ZM586.941 426.603C586.941 431.501 587.868 436.192 589.745 440.629L600.082 436.429C598.789 433.372 598.13 430.113 598.13 426.603H586.941ZM589.812 440.779C591.759 445.019 594.379 448.774 597.672 452.001L605.584 444.247C603.282 441.991 601.426 439.349 600.016 436.279L589.812 440.779ZM597.672 452.001C600.965 455.228 604.795 457.796 609.122 459.704L613.714 449.704C610.581 448.322 607.886 446.503 605.584 444.247L597.672 452.001ZM609.23 459.75C613.692 461.608 618.451 462.517 623.447 462.517V451.551C619.865 451.551 616.605 450.906 613.607 449.657L609.23 459.75ZM726.621 394.253L724.298 399.241L724.364 399.271L724.43 399.299L726.621 394.253ZM745.783 413.033L740.635 415.18L740.664 415.245L740.694 415.31L745.783 413.033ZM745.783 440.311L740.675 438.074L740.664 438.099L740.653 438.125L745.783 440.311ZM726.621 459.09L728.852 464.118L728.878 464.107L728.903 464.096L726.621 459.09ZM698.786 459.09L696.463 464.078L696.529 464.107L696.595 464.135L698.786 459.09ZM679.624 440.311L674.476 442.458L674.505 442.523L674.535 442.588L679.624 440.311ZM679.624 413.033L674.516 410.796L674.505 410.821L674.493 410.846L679.624 413.033ZM698.786 394.253L701.017 399.282L701.043 399.271L701.069 399.259L698.786 394.253ZM724.802 454.704L726.991 459.75L727.021 459.737L727.051 459.724L724.802 454.704ZM741.307 438.529L736.184 436.325L736.171 436.354L736.159 436.384L741.307 438.529ZM741.307 414.815L736.159 416.959L736.181 417.012L736.206 417.065L741.307 414.815ZM724.802 398.777L722.506 403.777L722.582 403.81L722.659 403.842L724.802 398.777ZM700.745 398.777L702.933 403.823L702.987 403.8L703.041 403.777L700.745 398.777ZM684.24 414.815L679.138 412.565L679.114 412.617L679.091 412.67L684.24 414.815ZM684.24 438.529L679.072 440.629L679.104 440.704L679.138 440.779L684.24 438.529ZM700.745 454.704L698.448 459.704L698.502 459.727L698.557 459.75L700.745 454.704ZM712.773 396.858C716.954 396.858 720.773 397.664 724.298 399.241L728.945 389.265C723.89 387.004 718.478 385.892 712.773 385.892V396.858ZM724.43 399.299C728.175 400.86 731.393 402.984 734.134 405.669L742.047 397.915C738.26 394.204 733.832 391.302 728.812 389.208L724.43 399.299ZM734.134 405.669C736.875 408.355 739.041 411.51 740.635 415.18L750.931 410.886C748.795 405.966 745.833 401.626 742.047 397.915L734.134 405.669ZM740.694 415.31C742.303 418.764 743.125 422.507 743.125 426.603H754.315C754.315 421.013 753.18 415.708 750.873 410.756L740.694 415.31ZM743.125 426.603C743.125 430.699 742.303 434.504 740.675 438.074L750.891 442.547C753.181 437.528 754.315 432.194 754.315 426.603H743.125ZM740.653 438.125C739.064 441.706 736.895 444.831 734.134 447.537L742.047 455.291C745.813 451.599 748.773 447.323 750.915 442.497L740.653 438.125ZM734.134 447.537C731.373 450.243 728.123 452.427 724.339 454.084L728.903 464.096C733.884 461.915 738.28 458.982 742.047 455.291L734.134 447.537ZM724.391 454.062C720.845 455.573 716.992 456.349 712.773 456.349V467.315C718.439 467.315 723.819 466.263 728.852 464.118L724.391 454.062ZM712.773 456.349C708.555 456.349 704.641 455.573 700.977 454.045L696.595 464.135C701.698 466.263 707.108 467.315 712.773 467.315V456.349ZM701.11 454.102C697.414 452.449 694.194 450.262 691.413 447.537L683.501 455.291C687.247 458.962 691.579 461.893 696.463 464.078L701.11 454.102ZM691.413 447.537C688.632 444.811 686.4 441.655 684.714 438.034L674.535 442.588C676.764 447.374 679.755 451.62 683.501 455.291L691.413 447.537ZM684.772 438.164C683.214 434.573 682.421 430.737 682.421 426.603H671.232C671.232 432.156 672.305 437.458 674.476 442.458L684.772 438.164ZM682.421 426.603C682.421 422.469 683.214 418.694 684.756 415.219L674.493 410.846C672.305 415.779 671.232 421.051 671.232 426.603H682.421ZM684.732 415.269C686.423 411.561 688.652 408.376 691.413 405.669L683.501 397.915C679.735 401.606 676.742 405.915 674.516 410.796L684.732 415.269ZM691.413 405.669C694.174 402.964 697.363 400.839 701.017 399.282L696.556 389.225C691.632 391.323 687.268 394.224 683.501 397.915L691.413 405.669ZM701.069 399.259C704.712 397.664 708.594 396.858 712.773 396.858V385.892C707.069 385.892 701.626 387.004 696.505 389.247L701.069 399.259ZM712.773 462.517C717.771 462.517 722.529 461.608 726.991 459.75L722.615 449.657C719.616 450.906 716.355 451.551 712.773 451.551V462.517ZM727.051 459.724C731.476 457.821 735.373 455.251 738.69 452.001L730.778 444.247C728.498 446.48 725.776 448.297 722.553 449.683L727.051 459.724ZM738.69 452.001C742.006 448.75 744.598 444.96 746.457 440.673L736.159 436.384C734.846 439.409 733.055 442.015 730.778 444.247L738.69 452.001ZM746.43 440.733C748.428 436.272 749.42 431.544 749.42 426.603H738.23C738.23 430.069 737.543 433.292 736.184 436.325L746.43 440.733ZM749.42 426.603C749.42 421.662 748.428 416.962 746.41 412.565L736.206 417.065C737.543 419.978 738.23 423.137 738.23 426.603H749.42ZM746.457 412.67C744.598 408.384 742.006 404.593 738.69 401.342L730.778 409.096C733.055 411.329 734.846 413.935 736.159 416.959L746.457 412.67ZM738.69 401.342C735.35 398.069 731.414 395.528 726.945 393.712L722.659 403.842C725.836 405.133 728.523 406.887 730.778 409.096L738.69 401.342ZM727.099 393.777C722.611 391.798 717.815 390.826 712.773 390.826V401.792C716.31 401.792 719.533 402.466 722.506 403.777L727.099 393.777ZM712.773 390.826C707.732 390.826 702.935 391.798 698.448 393.777L703.041 403.777C706.014 402.466 709.236 401.792 712.773 401.792V390.826ZM698.557 393.731C694.183 395.552 690.315 398.091 686.998 401.342L694.91 409.096C697.187 406.864 699.847 405.108 702.933 403.823L698.557 393.731ZM686.998 401.342C683.705 404.569 681.085 408.324 679.138 412.565L689.342 417.065C690.752 413.994 692.608 411.352 694.91 409.096L686.998 401.342ZM679.091 412.67C677.195 417.043 676.267 421.706 676.267 426.603H687.457C687.457 423.093 688.115 419.897 689.389 416.959L679.091 412.67ZM676.267 426.603C676.267 431.501 677.195 436.192 679.072 440.629L689.408 436.429C688.115 433.372 687.457 430.113 687.457 426.603H676.267ZM679.138 440.779C681.085 445.019 683.705 448.774 686.998 452.001L694.91 444.247C692.608 441.991 690.752 439.349 689.342 436.279L679.138 440.779ZM686.998 452.001C690.291 455.228 694.122 457.796 698.448 459.704L703.041 449.704C699.908 448.322 697.212 446.503 694.91 444.247L686.998 452.001ZM698.557 459.75C703.018 461.608 707.777 462.517 712.773 462.517V451.551C709.192 451.551 705.931 450.906 702.933 449.657L698.557 459.75ZM773.706 369.854L769.337 373.279L769.531 373.516L769.75 373.731L773.706 369.854ZM770.209 460.324L766.253 464.201L766.645 464.585L767.106 464.886L770.209 460.324ZM770.209 369.854L766.627 365.642L766.432 365.801L766.253 365.977L770.209 369.854ZM772.027 374.651C771.827 374.651 771.395 374.621 770.855 374.401C770.281 374.167 769.747 373.781 769.337 373.279L778.075 366.429C776.38 364.353 774.009 363.685 772.027 363.685V374.651ZM769.75 373.731C769.512 373.498 769.255 373.16 769.067 372.717C768.877 372.272 768.81 371.847 768.81 371.499H780C780 369.388 779.165 367.45 777.662 365.977L769.75 373.731ZM768.81 371.499V458.542H780V371.499H768.81ZM768.81 458.542C768.81 458.473 768.832 457.415 769.855 456.412C770.878 455.41 771.958 455.389 772.027 455.389V466.355C773.682 466.355 775.952 465.946 777.768 464.167C779.583 462.387 780 460.164 780 458.542H768.81ZM772.027 455.389C772.242 455.389 772.484 455.42 772.729 455.494C772.973 455.568 773.17 455.668 773.313 455.762L767.106 464.886C768.555 465.833 770.236 466.355 772.027 466.355V455.389ZM774.166 456.447C774.477 456.752 774.737 457.137 774.906 457.567C775.071 457.984 775.104 458.333 775.104 458.542H763.915C763.915 460.519 764.596 462.577 766.253 464.201L774.166 456.447ZM775.104 458.542V371.499H763.915V458.542H775.104ZM775.104 371.499C775.104 371.847 775.038 372.272 774.849 372.717C774.661 373.16 774.403 373.498 774.166 373.731L766.253 365.977C764.75 367.45 763.915 369.388 763.915 371.499H775.104ZM773.791 374.066C773.656 374.175 773.425 374.332 773.091 374.457C772.751 374.586 772.384 374.651 772.027 374.651V363.685C769.914 363.685 768.068 364.465 766.627 365.642L773.791 374.066Z" fill="white"/>
</svg>
